G04 Layer_Physical_Order=2*
G04 Layer_Color=16711680*
%FSLAX42Y42*%
%MOMM*%
G71*
G01*
G75*
%ADD12C,1.50*%
%ADD13C,0.33*%
%ADD16C,2.00*%
%ADD17C,1.68*%
%ADD18C,1.27*%
%ADD19C,5.00*%
G36*
X8849Y9172D02*
X8887D01*
Y6335D01*
X8898Y6325D01*
X8882Y6309D01*
Y577D01*
X8875D01*
X8499Y201D01*
X470D01*
Y298D01*
X478Y302D01*
X515Y324D01*
X548Y353D01*
X576Y386D01*
X599Y422D01*
X615Y463D01*
X625Y505D01*
X629Y548D01*
X625Y591D01*
X615Y633D01*
X599Y673D01*
X576Y710D01*
X548Y743D01*
X515Y771D01*
X478Y794D01*
X438Y811D01*
X396Y821D01*
X353Y824D01*
X309Y821D01*
X267Y811D01*
X227Y794D01*
X224Y792D01*
X180Y836D01*
Y8969D01*
X516Y9329D01*
X538D01*
X542Y9318D01*
X537Y9313D01*
X509Y9280D01*
X486Y9243D01*
X470Y9203D01*
X460Y9161D01*
X456Y9118D01*
X460Y9075D01*
X470Y9033D01*
X486Y8992D01*
X509Y8956D01*
X537Y8923D01*
X570Y8894D01*
X607Y8872D01*
X647Y8855D01*
X689Y8845D01*
X733Y8842D01*
X776Y8845D01*
X818Y8855D01*
X858Y8872D01*
X895Y8894D01*
X928Y8923D01*
X956Y8956D01*
X979Y8992D01*
X995Y9033D01*
X1005Y9075D01*
X1009Y9118D01*
X1005Y9161D01*
X995Y9203D01*
X979Y9243D01*
X956Y9280D01*
X928Y9313D01*
X923Y9318D01*
X927Y9329D01*
X7908D01*
X7912Y9318D01*
X7907Y9313D01*
X7879Y9280D01*
X7856Y9243D01*
X7840Y9203D01*
X7830Y9161D01*
X7826Y9118D01*
X7830Y9075D01*
X7840Y9033D01*
X7856Y8992D01*
X7879Y8956D01*
X7907Y8923D01*
X7940Y8894D01*
X7977Y8872D01*
X8017Y8855D01*
X8059Y8845D01*
X8103Y8842D01*
X8146Y8845D01*
X8188Y8855D01*
X8228Y8872D01*
X8265Y8894D01*
X8298Y8923D01*
X8326Y8956D01*
X8349Y8992D01*
X8365Y9033D01*
X8375Y9075D01*
X8379Y9118D01*
X8375Y9161D01*
X8365Y9203D01*
X8349Y9243D01*
X8326Y9280D01*
X8298Y9313D01*
X8293Y9318D01*
X8297Y9329D01*
X8692D01*
X8849Y9172D01*
D02*
G37*
%LPC*%
G36*
X2004Y8739D02*
X1976Y8735D01*
X1949Y8724D01*
X1926Y8706D01*
X1909Y8683D01*
X1898Y8657D01*
X1894Y8628D01*
X1898Y8600D01*
X1909Y8573D01*
X1926Y8551D01*
X1949Y8533D01*
X1976Y8522D01*
X2004Y8518D01*
X2033Y8522D01*
X2059Y8533D01*
X2082Y8551D01*
X2099Y8573D01*
X2110Y8600D01*
X2114Y8628D01*
X2110Y8657D01*
X2099Y8683D01*
X2082Y8706D01*
X2059Y8724D01*
X2033Y8735D01*
X2004Y8739D01*
D02*
G37*
G36*
X1750D02*
X1722Y8735D01*
X1695Y8724D01*
X1672Y8706D01*
X1655Y8683D01*
X1644Y8657D01*
X1640Y8628D01*
X1644Y8600D01*
X1655Y8573D01*
X1672Y8551D01*
X1695Y8533D01*
X1722Y8522D01*
X1750Y8518D01*
X1779Y8522D01*
X1805Y8533D01*
X1828Y8551D01*
X1845Y8573D01*
X1856Y8600D01*
X1860Y8628D01*
X1856Y8657D01*
X1845Y8683D01*
X1828Y8706D01*
X1805Y8724D01*
X1779Y8735D01*
X1750Y8739D01*
D02*
G37*
G36*
X1496D02*
X1468Y8735D01*
X1441Y8724D01*
X1418Y8706D01*
X1401Y8683D01*
X1390Y8657D01*
X1386Y8628D01*
X1390Y8600D01*
X1401Y8573D01*
X1418Y8551D01*
X1441Y8533D01*
X1468Y8522D01*
X1496Y8518D01*
X1525Y8522D01*
X1551Y8533D01*
X1574Y8551D01*
X1591Y8573D01*
X1602Y8600D01*
X1606Y8628D01*
X1602Y8657D01*
X1591Y8683D01*
X1574Y8706D01*
X1551Y8724D01*
X1525Y8735D01*
X1496Y8739D01*
D02*
G37*
G36*
X2766D02*
X2738Y8735D01*
X2711Y8724D01*
X2688Y8706D01*
X2671Y8683D01*
X2660Y8657D01*
X2656Y8628D01*
X2660Y8600D01*
X2671Y8573D01*
X2688Y8551D01*
X2711Y8533D01*
X2738Y8522D01*
X2766Y8518D01*
X2795Y8522D01*
X2821Y8533D01*
X2844Y8551D01*
X2861Y8573D01*
X2872Y8600D01*
X2876Y8628D01*
X2872Y8657D01*
X2861Y8683D01*
X2844Y8706D01*
X2821Y8724D01*
X2795Y8735D01*
X2766Y8739D01*
D02*
G37*
G36*
X2512D02*
X2484Y8735D01*
X2457Y8724D01*
X2434Y8706D01*
X2417Y8683D01*
X2406Y8657D01*
X2402Y8628D01*
X2406Y8600D01*
X2417Y8573D01*
X2434Y8551D01*
X2457Y8533D01*
X2484Y8522D01*
X2512Y8518D01*
X2541Y8522D01*
X2567Y8533D01*
X2590Y8551D01*
X2607Y8573D01*
X2618Y8600D01*
X2622Y8628D01*
X2618Y8657D01*
X2607Y8683D01*
X2590Y8706D01*
X2567Y8724D01*
X2541Y8735D01*
X2512Y8739D01*
D02*
G37*
G36*
X2258D02*
X2230Y8735D01*
X2203Y8724D01*
X2180Y8706D01*
X2163Y8683D01*
X2152Y8657D01*
X2148Y8628D01*
X2152Y8600D01*
X2163Y8573D01*
X2180Y8551D01*
X2203Y8533D01*
X2230Y8522D01*
X2258Y8518D01*
X2287Y8522D01*
X2313Y8533D01*
X2336Y8551D01*
X2353Y8573D01*
X2364Y8600D01*
X2368Y8628D01*
X2364Y8657D01*
X2353Y8683D01*
X2336Y8706D01*
X2313Y8724D01*
X2287Y8735D01*
X2258Y8739D01*
D02*
G37*
G36*
X7084Y8485D02*
X7056Y8481D01*
X7029Y8470D01*
X7006Y8452D01*
X6989Y8429D01*
X6978Y8403D01*
X6974Y8374D01*
X6978Y8346D01*
X6989Y8319D01*
X7006Y8297D01*
X7029Y8279D01*
X7056Y8268D01*
X7084Y8264D01*
X7113Y8268D01*
X7139Y8279D01*
X7162Y8297D01*
X7179Y8319D01*
X7190Y8346D01*
X7194Y8374D01*
X7190Y8403D01*
X7179Y8429D01*
X7162Y8452D01*
X7139Y8470D01*
X7113Y8481D01*
X7084Y8485D01*
D02*
G37*
G36*
X6576D02*
X6548Y8481D01*
X6521Y8470D01*
X6498Y8452D01*
X6481Y8429D01*
X6470Y8403D01*
X6466Y8374D01*
X6470Y8346D01*
X6481Y8319D01*
X6498Y8297D01*
X6521Y8279D01*
X6548Y8268D01*
X6576Y8264D01*
X6605Y8268D01*
X6631Y8279D01*
X6654Y8297D01*
X6671Y8319D01*
X6682Y8346D01*
X6686Y8374D01*
X6682Y8403D01*
X6671Y8429D01*
X6654Y8452D01*
X6631Y8470D01*
X6605Y8481D01*
X6576Y8485D01*
D02*
G37*
G36*
X6322D02*
X6294Y8481D01*
X6267Y8470D01*
X6244Y8452D01*
X6227Y8429D01*
X6216Y8403D01*
X6212Y8374D01*
X6216Y8346D01*
X6227Y8319D01*
X6244Y8297D01*
X6267Y8279D01*
X6294Y8268D01*
X6322Y8264D01*
X6351Y8268D01*
X6377Y8279D01*
X6400Y8297D01*
X6417Y8319D01*
X6428Y8346D01*
X6432Y8374D01*
X6428Y8403D01*
X6417Y8429D01*
X6400Y8452D01*
X6377Y8470D01*
X6351Y8481D01*
X6322Y8485D01*
D02*
G37*
G36*
X1242Y8739D02*
X1214Y8735D01*
X1187Y8724D01*
X1164Y8706D01*
X1147Y8683D01*
X1136Y8657D01*
X1132Y8628D01*
X1136Y8600D01*
X1147Y8573D01*
X1164Y8551D01*
X1187Y8533D01*
X1214Y8522D01*
X1242Y8518D01*
X1271Y8522D01*
X1297Y8533D01*
X1320Y8551D01*
X1337Y8573D01*
X1348Y8600D01*
X1352Y8628D01*
X1348Y8657D01*
X1337Y8683D01*
X1320Y8706D01*
X1297Y8724D01*
X1271Y8735D01*
X1242Y8739D01*
D02*
G37*
G36*
X7592Y8485D02*
X7564Y8481D01*
X7537Y8470D01*
X7514Y8452D01*
X7497Y8429D01*
X7486Y8403D01*
X7482Y8374D01*
X7486Y8346D01*
X7497Y8319D01*
X7514Y8297D01*
X7537Y8279D01*
X7564Y8268D01*
X7592Y8264D01*
X7621Y8268D01*
X7647Y8279D01*
X7670Y8297D01*
X7687Y8319D01*
X7698Y8346D01*
X7702Y8374D01*
X7698Y8403D01*
X7687Y8429D01*
X7670Y8452D01*
X7647Y8470D01*
X7621Y8481D01*
X7592Y8485D01*
D02*
G37*
G36*
X7338D02*
X7310Y8481D01*
X7283Y8470D01*
X7260Y8452D01*
X7243Y8429D01*
X7232Y8403D01*
X7228Y8374D01*
X7232Y8346D01*
X7243Y8319D01*
X7260Y8297D01*
X7283Y8279D01*
X7310Y8268D01*
X7338Y8264D01*
X7367Y8268D01*
X7393Y8279D01*
X7416Y8297D01*
X7433Y8319D01*
X7444Y8346D01*
X7448Y8374D01*
X7444Y8403D01*
X7433Y8429D01*
X7416Y8452D01*
X7393Y8470D01*
X7367Y8481D01*
X7338Y8485D01*
D02*
G37*
G36*
X3020Y8739D02*
X2992Y8735D01*
X2965Y8724D01*
X2942Y8706D01*
X2925Y8683D01*
X2914Y8657D01*
X2910Y8628D01*
X2914Y8600D01*
X2925Y8573D01*
X2942Y8551D01*
X2965Y8533D01*
X2992Y8522D01*
X3020Y8518D01*
X3049Y8522D01*
X3075Y8533D01*
X3098Y8551D01*
X3115Y8573D01*
X3126Y8600D01*
X3130Y8628D01*
X3126Y8657D01*
X3115Y8683D01*
X3098Y8706D01*
X3075Y8724D01*
X3049Y8735D01*
X3020Y8739D01*
D02*
G37*
G36*
X5814D02*
X5786Y8735D01*
X5759Y8724D01*
X5736Y8706D01*
X5719Y8683D01*
X5708Y8657D01*
X5704Y8628D01*
X5708Y8600D01*
X5719Y8573D01*
X5736Y8551D01*
X5759Y8533D01*
X5786Y8522D01*
X5814Y8518D01*
X5843Y8522D01*
X5869Y8533D01*
X5892Y8551D01*
X5909Y8573D01*
X5920Y8600D01*
X5924Y8628D01*
X5920Y8657D01*
X5909Y8683D01*
X5892Y8706D01*
X5869Y8724D01*
X5843Y8735D01*
X5814Y8739D01*
D02*
G37*
G36*
X5560D02*
X5532Y8735D01*
X5505Y8724D01*
X5482Y8706D01*
X5465Y8683D01*
X5454Y8657D01*
X5450Y8628D01*
X5454Y8600D01*
X5465Y8573D01*
X5482Y8551D01*
X5505Y8533D01*
X5532Y8522D01*
X5560Y8518D01*
X5589Y8522D01*
X5615Y8533D01*
X5638Y8551D01*
X5655Y8573D01*
X5666Y8600D01*
X5670Y8628D01*
X5666Y8657D01*
X5655Y8683D01*
X5638Y8706D01*
X5615Y8724D01*
X5589Y8735D01*
X5560Y8739D01*
D02*
G37*
G36*
X5306D02*
X5278Y8735D01*
X5251Y8724D01*
X5228Y8706D01*
X5211Y8683D01*
X5200Y8657D01*
X5196Y8628D01*
X5200Y8600D01*
X5211Y8573D01*
X5228Y8551D01*
X5251Y8533D01*
X5278Y8522D01*
X5306Y8518D01*
X5335Y8522D01*
X5361Y8533D01*
X5384Y8551D01*
X5401Y8573D01*
X5412Y8600D01*
X5416Y8628D01*
X5412Y8657D01*
X5401Y8683D01*
X5384Y8706D01*
X5361Y8724D01*
X5335Y8735D01*
X5306Y8739D01*
D02*
G37*
G36*
X6576D02*
X6548Y8735D01*
X6521Y8724D01*
X6498Y8706D01*
X6481Y8683D01*
X6470Y8657D01*
X6466Y8628D01*
X6470Y8600D01*
X6481Y8573D01*
X6498Y8551D01*
X6521Y8533D01*
X6548Y8522D01*
X6576Y8518D01*
X6605Y8522D01*
X6631Y8533D01*
X6654Y8551D01*
X6671Y8573D01*
X6682Y8600D01*
X6686Y8628D01*
X6682Y8657D01*
X6671Y8683D01*
X6654Y8706D01*
X6631Y8724D01*
X6605Y8735D01*
X6576Y8739D01*
D02*
G37*
G36*
X6322D02*
X6294Y8735D01*
X6267Y8724D01*
X6244Y8706D01*
X6227Y8683D01*
X6216Y8657D01*
X6212Y8628D01*
X6216Y8600D01*
X6227Y8573D01*
X6244Y8551D01*
X6267Y8533D01*
X6294Y8522D01*
X6322Y8518D01*
X6351Y8522D01*
X6377Y8533D01*
X6400Y8551D01*
X6417Y8573D01*
X6428Y8600D01*
X6432Y8628D01*
X6428Y8657D01*
X6417Y8683D01*
X6400Y8706D01*
X6377Y8724D01*
X6351Y8735D01*
X6322Y8739D01*
D02*
G37*
G36*
X6068D02*
X6040Y8735D01*
X6013Y8724D01*
X5990Y8706D01*
X5973Y8683D01*
X5962Y8657D01*
X5958Y8628D01*
X5962Y8600D01*
X5973Y8573D01*
X5990Y8551D01*
X6013Y8533D01*
X6040Y8522D01*
X6068Y8518D01*
X6097Y8522D01*
X6123Y8533D01*
X6146Y8551D01*
X6163Y8573D01*
X6174Y8600D01*
X6178Y8628D01*
X6174Y8657D01*
X6163Y8683D01*
X6146Y8706D01*
X6123Y8724D01*
X6097Y8735D01*
X6068Y8739D01*
D02*
G37*
G36*
X3782D02*
X3754Y8735D01*
X3727Y8724D01*
X3704Y8706D01*
X3687Y8683D01*
X3676Y8657D01*
X3672Y8628D01*
X3676Y8600D01*
X3687Y8573D01*
X3704Y8551D01*
X3727Y8533D01*
X3754Y8522D01*
X3782Y8518D01*
X3811Y8522D01*
X3837Y8533D01*
X3860Y8551D01*
X3877Y8573D01*
X3888Y8600D01*
X3892Y8628D01*
X3888Y8657D01*
X3877Y8683D01*
X3860Y8706D01*
X3837Y8724D01*
X3811Y8735D01*
X3782Y8739D01*
D02*
G37*
G36*
X3528D02*
X3500Y8735D01*
X3473Y8724D01*
X3450Y8706D01*
X3433Y8683D01*
X3422Y8657D01*
X3418Y8628D01*
X3422Y8600D01*
X3433Y8573D01*
X3450Y8551D01*
X3473Y8533D01*
X3500Y8522D01*
X3528Y8518D01*
X3557Y8522D01*
X3583Y8533D01*
X3606Y8551D01*
X3623Y8573D01*
X3634Y8600D01*
X3638Y8628D01*
X3634Y8657D01*
X3623Y8683D01*
X3606Y8706D01*
X3583Y8724D01*
X3557Y8735D01*
X3528Y8739D01*
D02*
G37*
G36*
X3274D02*
X3246Y8735D01*
X3219Y8724D01*
X3196Y8706D01*
X3179Y8683D01*
X3168Y8657D01*
X3164Y8628D01*
X3168Y8600D01*
X3179Y8573D01*
X3196Y8551D01*
X3219Y8533D01*
X3246Y8522D01*
X3274Y8518D01*
X3303Y8522D01*
X3329Y8533D01*
X3352Y8551D01*
X3369Y8573D01*
X3380Y8600D01*
X3384Y8628D01*
X3380Y8657D01*
X3369Y8683D01*
X3352Y8706D01*
X3329Y8724D01*
X3303Y8735D01*
X3274Y8739D01*
D02*
G37*
G36*
X5052D02*
X5024Y8735D01*
X4997Y8724D01*
X4974Y8706D01*
X4957Y8683D01*
X4946Y8657D01*
X4942Y8628D01*
X4946Y8600D01*
X4957Y8573D01*
X4974Y8551D01*
X4997Y8533D01*
X5024Y8522D01*
X5052Y8518D01*
X5081Y8522D01*
X5107Y8533D01*
X5130Y8551D01*
X5147Y8573D01*
X5158Y8600D01*
X5162Y8628D01*
X5158Y8657D01*
X5147Y8683D01*
X5130Y8706D01*
X5107Y8724D01*
X5081Y8735D01*
X5052Y8739D01*
D02*
G37*
G36*
X4798D02*
X4770Y8735D01*
X4743Y8724D01*
X4720Y8706D01*
X4703Y8683D01*
X4692Y8657D01*
X4688Y8628D01*
X4692Y8600D01*
X4703Y8573D01*
X4720Y8551D01*
X4743Y8533D01*
X4770Y8522D01*
X4798Y8518D01*
X4827Y8522D01*
X4853Y8533D01*
X4876Y8551D01*
X4893Y8573D01*
X4904Y8600D01*
X4908Y8628D01*
X4904Y8657D01*
X4893Y8683D01*
X4876Y8706D01*
X4853Y8724D01*
X4827Y8735D01*
X4798Y8739D01*
D02*
G37*
G36*
X4036D02*
X4008Y8735D01*
X3981Y8724D01*
X3958Y8706D01*
X3941Y8683D01*
X3930Y8657D01*
X3926Y8628D01*
X3930Y8600D01*
X3941Y8573D01*
X3958Y8551D01*
X3981Y8533D01*
X4008Y8522D01*
X4036Y8518D01*
X4065Y8522D01*
X4091Y8533D01*
X4114Y8551D01*
X4131Y8573D01*
X4142Y8600D01*
X4146Y8628D01*
X4142Y8657D01*
X4131Y8683D01*
X4114Y8706D01*
X4091Y8724D01*
X4065Y8735D01*
X4036Y8739D01*
D02*
G37*
G36*
X6068Y8485D02*
X6040Y8481D01*
X6013Y8470D01*
X5990Y8452D01*
X5973Y8429D01*
X5962Y8403D01*
X5958Y8374D01*
X5962Y8346D01*
X5973Y8319D01*
X5990Y8297D01*
X6013Y8279D01*
X6040Y8268D01*
X6068Y8264D01*
X6097Y8268D01*
X6123Y8279D01*
X6146Y8297D01*
X6163Y8319D01*
X6174Y8346D01*
X6178Y8374D01*
X6174Y8403D01*
X6163Y8429D01*
X6146Y8452D01*
X6123Y8470D01*
X6097Y8481D01*
X6068Y8485D01*
D02*
G37*
G36*
X1496D02*
X1468Y8481D01*
X1441Y8470D01*
X1418Y8452D01*
X1401Y8429D01*
X1390Y8403D01*
X1386Y8374D01*
X1390Y8346D01*
X1401Y8319D01*
X1418Y8297D01*
X1441Y8279D01*
X1468Y8268D01*
X1496Y8264D01*
X1525Y8268D01*
X1551Y8279D01*
X1574Y8297D01*
X1591Y8319D01*
X1602Y8346D01*
X1606Y8374D01*
X1602Y8403D01*
X1591Y8429D01*
X1574Y8452D01*
X1551Y8470D01*
X1525Y8481D01*
X1496Y8485D01*
D02*
G37*
G36*
X1242D02*
X1214Y8481D01*
X1187Y8470D01*
X1164Y8452D01*
X1147Y8429D01*
X1136Y8403D01*
X1132Y8374D01*
X1136Y8346D01*
X1147Y8319D01*
X1164Y8297D01*
X1187Y8279D01*
X1214Y8268D01*
X1242Y8264D01*
X1271Y8268D01*
X1297Y8279D01*
X1320Y8297D01*
X1337Y8319D01*
X1348Y8346D01*
X1352Y8374D01*
X1348Y8403D01*
X1337Y8429D01*
X1320Y8452D01*
X1297Y8470D01*
X1271Y8481D01*
X1242Y8485D01*
D02*
G37*
G36*
X6604Y7698D02*
X6571Y7694D01*
X6541Y7681D01*
X6515Y7661D01*
X6494Y7635D01*
X6484Y7609D01*
X6470D01*
X6460Y7635D01*
X6439Y7661D01*
X6413Y7681D01*
X6383Y7694D01*
X6350Y7698D01*
X6317Y7694D01*
X6287Y7681D01*
X6261Y7661D01*
X6240Y7635D01*
X6228Y7604D01*
X6224Y7572D01*
X6228Y7539D01*
X6240Y7508D01*
X6261Y7482D01*
X6287Y7462D01*
X6317Y7450D01*
X6350Y7445D01*
X6383Y7450D01*
X6413Y7462D01*
X6439Y7482D01*
X6460Y7508D01*
X6470Y7534D01*
X6484D01*
X6494Y7508D01*
X6515Y7482D01*
X6541Y7462D01*
X6571Y7450D01*
X6604Y7445D01*
X6637Y7450D01*
X6667Y7462D01*
X6693Y7482D01*
X6714Y7508D01*
X6726Y7539D01*
X6730Y7572D01*
X6726Y7604D01*
X6714Y7635D01*
X6693Y7661D01*
X6667Y7681D01*
X6637Y7694D01*
X6604Y7698D01*
D02*
G37*
G36*
X2258Y8485D02*
X2230Y8481D01*
X2203Y8470D01*
X2180Y8452D01*
X2163Y8429D01*
X2152Y8403D01*
X2148Y8374D01*
X2152Y8346D01*
X2163Y8319D01*
X2180Y8297D01*
X2203Y8279D01*
X2230Y8268D01*
X2258Y8264D01*
X2287Y8268D01*
X2313Y8279D01*
X2336Y8297D01*
X2353Y8319D01*
X2364Y8346D01*
X2368Y8374D01*
X2364Y8403D01*
X2353Y8429D01*
X2336Y8452D01*
X2313Y8470D01*
X2287Y8481D01*
X2258Y8485D01*
D02*
G37*
G36*
X2004D02*
X1976Y8481D01*
X1949Y8470D01*
X1926Y8452D01*
X1909Y8429D01*
X1898Y8403D01*
X1894Y8374D01*
X1898Y8346D01*
X1909Y8319D01*
X1926Y8297D01*
X1949Y8279D01*
X1976Y8268D01*
X2004Y8264D01*
X2033Y8268D01*
X2059Y8279D01*
X2082Y8297D01*
X2099Y8319D01*
X2110Y8346D01*
X2114Y8374D01*
X2110Y8403D01*
X2099Y8429D01*
X2082Y8452D01*
X2059Y8470D01*
X2033Y8481D01*
X2004Y8485D01*
D02*
G37*
G36*
X1750D02*
X1722Y8481D01*
X1695Y8470D01*
X1672Y8452D01*
X1655Y8429D01*
X1644Y8403D01*
X1640Y8374D01*
X1644Y8346D01*
X1655Y8319D01*
X1672Y8297D01*
X1695Y8279D01*
X1722Y8268D01*
X1750Y8264D01*
X1779Y8268D01*
X1805Y8279D01*
X1828Y8297D01*
X1845Y8319D01*
X1856Y8346D01*
X1860Y8374D01*
X1856Y8403D01*
X1845Y8429D01*
X1828Y8452D01*
X1805Y8470D01*
X1779Y8481D01*
X1750Y8485D01*
D02*
G37*
G36*
X3581Y5326D02*
X3549Y5322D01*
X3518Y5309D01*
X3492Y5289D01*
X3472Y5263D01*
X3461Y5237D01*
X3448D01*
X3437Y5263D01*
X3417Y5289D01*
X3391Y5309D01*
X3360Y5322D01*
X3327Y5326D01*
X3295Y5322D01*
X3264Y5309D01*
X3238Y5289D01*
X3218Y5263D01*
X3207Y5237D01*
X3194D01*
X3183Y5263D01*
X3163Y5289D01*
X3137Y5309D01*
X3106Y5322D01*
X3073Y5326D01*
X3041Y5322D01*
X3010Y5309D01*
X2984Y5289D01*
X2964Y5263D01*
X2951Y5232D01*
X2947Y5199D01*
X2951Y5167D01*
X2964Y5136D01*
X2984Y5110D01*
X3010Y5090D01*
X3041Y5077D01*
X3073Y5073D01*
X3106Y5077D01*
X3137Y5090D01*
X3163Y5110D01*
X3183Y5136D01*
X3194Y5162D01*
X3207D01*
X3218Y5136D01*
X3238Y5110D01*
X3264Y5090D01*
X3295Y5077D01*
X3327Y5073D01*
X3360Y5077D01*
X3391Y5090D01*
X3417Y5110D01*
X3437Y5136D01*
X3448Y5162D01*
X3461D01*
X3472Y5136D01*
X3492Y5110D01*
X3518Y5090D01*
X3549Y5077D01*
X3581Y5073D01*
X3614Y5077D01*
X3645Y5090D01*
X3671Y5110D01*
X3691Y5136D01*
X3704Y5167D01*
X3708Y5199D01*
X3704Y5232D01*
X3691Y5263D01*
X3671Y5289D01*
X3645Y5309D01*
X3614Y5322D01*
X3581Y5326D01*
D02*
G37*
G36*
X2667D02*
X2634Y5322D01*
X2604Y5309D01*
X2578Y5289D01*
X2557Y5263D01*
X2547Y5237D01*
X2533D01*
X2523Y5263D01*
X2502Y5289D01*
X2476Y5309D01*
X2446Y5322D01*
X2413Y5326D01*
X2380Y5322D01*
X2350Y5309D01*
X2324Y5289D01*
X2303Y5263D01*
X2291Y5232D01*
X2287Y5199D01*
X2291Y5167D01*
X2303Y5136D01*
X2324Y5110D01*
X2350Y5090D01*
X2380Y5077D01*
X2413Y5073D01*
X2446Y5077D01*
X2476Y5090D01*
X2502Y5110D01*
X2523Y5136D01*
X2533Y5162D01*
X2547D01*
X2557Y5136D01*
X2578Y5110D01*
X2604Y5090D01*
X2634Y5077D01*
X2667Y5073D01*
X2700Y5077D01*
X2730Y5090D01*
X2756Y5110D01*
X2777Y5136D01*
X2789Y5167D01*
X2793Y5199D01*
X2789Y5232D01*
X2777Y5263D01*
X2756Y5289D01*
X2730Y5309D01*
X2700Y5322D01*
X2667Y5326D01*
D02*
G37*
G36*
X7950Y4450D02*
X7917Y4445D01*
X7887Y4433D01*
X7861Y4413D01*
X7841Y4386D01*
X7828Y4356D01*
X7824Y4323D01*
X7828Y4290D01*
X7841Y4260D01*
X7849Y4249D01*
Y4143D01*
X7841Y4132D01*
X7828Y4102D01*
X7826Y4088D01*
X6179Y2441D01*
X2964D01*
X2964Y2441D01*
X2938Y2437D01*
X2914Y2427D01*
X2893Y2411D01*
X1262Y780D01*
X1246Y759D01*
X1236Y735D01*
X1232Y709D01*
X1232Y709D01*
Y419D01*
X1224Y409D01*
X1211Y378D01*
X1207Y345D01*
X1211Y313D01*
X1224Y282D01*
X1244Y256D01*
X1270Y236D01*
X1301Y223D01*
X1334Y219D01*
X1366Y223D01*
X1397Y236D01*
X1423Y256D01*
X1443Y282D01*
X1456Y313D01*
X1460Y345D01*
X1456Y378D01*
X1443Y409D01*
X1435Y419D01*
Y667D01*
X3006Y2238D01*
X6220D01*
X6220Y2238D01*
X6247Y2242D01*
X6271Y2252D01*
X6292Y2268D01*
X7969Y3945D01*
X7983Y3947D01*
X8013Y3960D01*
X8040Y3980D01*
X8060Y4006D01*
X8072Y4036D01*
X8077Y4069D01*
X8072Y4102D01*
X8060Y4132D01*
X8051Y4143D01*
Y4249D01*
X8060Y4260D01*
X8072Y4290D01*
X8077Y4323D01*
X8072Y4356D01*
X8060Y4386D01*
X8040Y4413D01*
X8013Y4433D01*
X7983Y4445D01*
X7950Y4450D01*
D02*
G37*
G36*
X1446Y7633D02*
X1413Y7629D01*
X1382Y7616D01*
X1372Y7608D01*
X1294D01*
X1294Y7608D01*
X1268Y7604D01*
X1243Y7594D01*
X1222Y7578D01*
X995Y7351D01*
X979Y7330D01*
X969Y7306D01*
X966Y7280D01*
X966Y7280D01*
Y6769D01*
X957Y6759D01*
X945Y6728D01*
X940Y6695D01*
X945Y6663D01*
X957Y6632D01*
X966Y6621D01*
Y6515D01*
X957Y6505D01*
X945Y6474D01*
X940Y6441D01*
X945Y6409D01*
X957Y6378D01*
X977Y6352D01*
X1004Y6332D01*
X1034Y6319D01*
X1048Y6317D01*
X1249Y6116D01*
X1249Y6116D01*
X1270Y6100D01*
X1295Y6090D01*
X1321Y6086D01*
X1321Y6086D01*
X1541D01*
X1552Y6078D01*
X1583Y6065D01*
X1615Y6061D01*
X1648Y6065D01*
X1679Y6078D01*
X1705Y6098D01*
X1725Y6124D01*
X1738Y6155D01*
X1742Y6187D01*
X1738Y6220D01*
X1725Y6251D01*
X1705Y6277D01*
X1679Y6297D01*
X1648Y6310D01*
X1615Y6314D01*
X1583Y6310D01*
X1552Y6297D01*
X1541Y6289D01*
X1363D01*
X1191Y6461D01*
X1189Y6474D01*
X1176Y6505D01*
X1168Y6515D01*
Y6621D01*
X1176Y6632D01*
X1189Y6663D01*
X1193Y6695D01*
X1189Y6728D01*
X1176Y6759D01*
X1168Y6769D01*
Y7238D01*
X1336Y7405D01*
X1372D01*
X1382Y7397D01*
X1413Y7384D01*
X1446Y7380D01*
X1478Y7384D01*
X1509Y7397D01*
X1535Y7417D01*
X1555Y7443D01*
X1568Y7474D01*
X1572Y7507D01*
X1568Y7539D01*
X1555Y7570D01*
X1535Y7596D01*
X1509Y7616D01*
X1478Y7629D01*
X1446Y7633D01*
D02*
G37*
G36*
X2837Y7954D02*
X2814Y7950D01*
X2792Y7941D01*
X2774Y7927D01*
X2760Y7909D01*
X2751Y7887D01*
X2748Y7864D01*
X2751Y7841D01*
X2760Y7819D01*
X2774Y7800D01*
X2792Y7786D01*
X2814Y7777D01*
X2837Y7774D01*
X2860Y7777D01*
X2862Y7778D01*
X3401Y7239D01*
X3415Y7230D01*
X3432Y7227D01*
X3432Y7227D01*
X5735D01*
X5752Y7230D01*
X5766Y7239D01*
X5974Y7448D01*
X5975Y7449D01*
X5976Y7450D01*
X6007Y7462D01*
X6033Y7482D01*
X6053Y7508D01*
X6066Y7539D01*
X6070Y7572D01*
X6066Y7604D01*
X6053Y7635D01*
X6033Y7661D01*
X6007Y7681D01*
X5976Y7694D01*
X5944Y7698D01*
X5911Y7694D01*
X5880Y7681D01*
X5854Y7661D01*
X5834Y7635D01*
X5823Y7609D01*
X5810D01*
X5799Y7635D01*
X5779Y7661D01*
X5753Y7681D01*
X5722Y7694D01*
X5690Y7698D01*
X5657Y7694D01*
X5626Y7681D01*
X5600Y7661D01*
X5580Y7635D01*
X5569Y7609D01*
X5556D01*
X5545Y7635D01*
X5525Y7661D01*
X5499Y7681D01*
X5468Y7694D01*
X5436Y7698D01*
X5403Y7694D01*
X5372Y7681D01*
X5346Y7661D01*
X5326Y7635D01*
X5313Y7604D01*
X5309Y7572D01*
X5313Y7539D01*
X5326Y7508D01*
X5346Y7482D01*
X5372Y7462D01*
X5403Y7450D01*
X5436Y7445D01*
X5468Y7450D01*
X5499Y7462D01*
X5525Y7482D01*
X5545Y7508D01*
X5556Y7534D01*
X5569D01*
X5580Y7508D01*
X5600Y7482D01*
X5626Y7462D01*
X5657Y7450D01*
X5690Y7445D01*
X5722Y7450D01*
X5753Y7462D01*
X5779Y7482D01*
X5799Y7508D01*
X5810Y7534D01*
X5823D01*
X5834Y7508D01*
X5854Y7482D01*
X5866Y7474D01*
X5866Y7461D01*
X5718Y7312D01*
X3449D01*
X2923Y7839D01*
X2924Y7841D01*
X2927Y7864D01*
X2924Y7887D01*
X2915Y7909D01*
X2901Y7927D01*
X2882Y7941D01*
X2860Y7950D01*
X2837Y7954D01*
D02*
G37*
G36*
X6830Y9247D02*
X6802Y9243D01*
X6775Y9232D01*
X6752Y9214D01*
X6735Y9191D01*
X6724Y9165D01*
X6720Y9136D01*
X6724Y9108D01*
X6729Y9096D01*
Y7963D01*
X6729Y7963D01*
X6732Y7937D01*
X6742Y7912D01*
X6758Y7891D01*
X6980Y7669D01*
Y7228D01*
X4202Y4450D01*
X684D01*
X673Y4458D01*
X642Y4471D01*
X610Y4475D01*
X577Y4471D01*
X546Y4458D01*
X520Y4438D01*
X500Y4412D01*
X487Y4381D01*
X483Y4348D01*
X487Y4316D01*
X500Y4285D01*
X508Y4274D01*
Y4168D01*
X500Y4158D01*
X487Y4127D01*
X483Y4094D01*
X487Y4062D01*
X500Y4031D01*
X520Y4005D01*
X546Y3985D01*
X577Y3972D01*
X610Y3968D01*
X642Y3972D01*
X673Y3985D01*
X699Y4005D01*
X719Y4031D01*
X732Y4062D01*
X736Y4094D01*
X732Y4127D01*
X719Y4158D01*
X711Y4168D01*
Y4247D01*
X4244D01*
X4244Y4247D01*
X4271Y4251D01*
X4295Y4261D01*
X4316Y4277D01*
X7082Y7042D01*
X7475Y6649D01*
X7475Y6649D01*
X7496Y6633D01*
X7520Y6623D01*
X7546Y6620D01*
X7546Y6620D01*
X8306D01*
Y6541D01*
X8298Y6530D01*
X8285Y6500D01*
X8281Y6467D01*
X8285Y6434D01*
X8298Y6404D01*
X8318Y6377D01*
X8344Y6357D01*
X8375Y6345D01*
X8407Y6340D01*
X8440Y6345D01*
X8471Y6357D01*
X8497Y6377D01*
X8517Y6404D01*
X8530Y6434D01*
X8534Y6467D01*
X8530Y6500D01*
X8517Y6530D01*
X8509Y6541D01*
Y6647D01*
X8517Y6658D01*
X8530Y6688D01*
X8534Y6721D01*
X8530Y6754D01*
X8517Y6784D01*
X8497Y6810D01*
X8471Y6830D01*
X8440Y6843D01*
X8407Y6847D01*
X8375Y6843D01*
X8344Y6830D01*
X8333Y6822D01*
X7588D01*
X7183Y7228D01*
Y7711D01*
X7179Y7738D01*
X7169Y7762D01*
X7153Y7783D01*
X7153Y7783D01*
X6931Y8005D01*
Y9096D01*
X6936Y9108D01*
X6940Y9136D01*
X6936Y9165D01*
X6925Y9191D01*
X6908Y9214D01*
X6885Y9232D01*
X6859Y9243D01*
X6830Y9247D01*
D02*
G37*
G36*
X2512Y8485D02*
X2484Y8481D01*
X2457Y8470D01*
X2434Y8452D01*
X2417Y8429D01*
X2406Y8403D01*
X2402Y8374D01*
X2406Y8346D01*
X2417Y8319D01*
X2434Y8297D01*
X2457Y8279D01*
X2484Y8268D01*
X2512Y8264D01*
X2541Y8268D01*
X2567Y8279D01*
X2590Y8297D01*
X2607Y8319D01*
X2618Y8346D01*
X2622Y8374D01*
X2618Y8403D01*
X2607Y8429D01*
X2590Y8452D01*
X2567Y8470D01*
X2541Y8481D01*
X2512Y8485D01*
D02*
G37*
G36*
X5306D02*
X5278Y8481D01*
X5251Y8470D01*
X5228Y8452D01*
X5211Y8429D01*
X5200Y8403D01*
X5196Y8374D01*
X5200Y8346D01*
X5211Y8319D01*
X5228Y8297D01*
X5251Y8279D01*
X5278Y8268D01*
X5306Y8264D01*
X5335Y8268D01*
X5361Y8279D01*
X5384Y8297D01*
X5401Y8319D01*
X5412Y8346D01*
X5416Y8374D01*
X5412Y8403D01*
X5401Y8429D01*
X5384Y8452D01*
X5361Y8470D01*
X5335Y8481D01*
X5306Y8485D01*
D02*
G37*
G36*
X5052D02*
X5024Y8481D01*
X4997Y8470D01*
X4974Y8452D01*
X4957Y8429D01*
X4946Y8403D01*
X4942Y8374D01*
X4946Y8346D01*
X4957Y8319D01*
X4974Y8297D01*
X4997Y8279D01*
X5024Y8268D01*
X5052Y8264D01*
X5081Y8268D01*
X5107Y8279D01*
X5130Y8297D01*
X5147Y8319D01*
X5158Y8346D01*
X5162Y8374D01*
X5158Y8403D01*
X5147Y8429D01*
X5130Y8452D01*
X5107Y8470D01*
X5081Y8481D01*
X5052Y8485D01*
D02*
G37*
G36*
X4798D02*
X4770Y8481D01*
X4743Y8470D01*
X4720Y8452D01*
X4703Y8429D01*
X4692Y8403D01*
X4688Y8374D01*
X4692Y8346D01*
X4703Y8319D01*
X4720Y8297D01*
X4743Y8279D01*
X4770Y8268D01*
X4798Y8264D01*
X4827Y8268D01*
X4853Y8279D01*
X4876Y8297D01*
X4893Y8319D01*
X4904Y8346D01*
X4908Y8374D01*
X4904Y8403D01*
X4893Y8429D01*
X4876Y8452D01*
X4853Y8470D01*
X4827Y8481D01*
X4798Y8485D01*
D02*
G37*
G36*
X8355Y827D02*
X8311Y823D01*
X8269Y813D01*
X8229Y797D01*
X8192Y774D01*
X8159Y746D01*
X8131Y713D01*
X8108Y676D01*
X8092Y636D01*
X8082Y594D01*
X8078Y550D01*
X8082Y507D01*
X8092Y465D01*
X8108Y425D01*
X8131Y388D01*
X8159Y355D01*
X8192Y327D01*
X8229Y304D01*
X8269Y288D01*
X8311Y278D01*
X8355Y274D01*
X8398Y278D01*
X8440Y288D01*
X8480Y304D01*
X8517Y327D01*
X8550Y355D01*
X8578Y388D01*
X8601Y425D01*
X8617Y465D01*
X8627Y507D01*
X8631Y550D01*
X8627Y594D01*
X8617Y636D01*
X8601Y676D01*
X8578Y713D01*
X8550Y746D01*
X8517Y774D01*
X8480Y797D01*
X8440Y813D01*
X8398Y823D01*
X8355Y827D01*
D02*
G37*
G36*
X5814Y8485D02*
X5786Y8481D01*
X5759Y8470D01*
X5736Y8452D01*
X5719Y8429D01*
X5708Y8403D01*
X5704Y8374D01*
X5708Y8346D01*
X5719Y8319D01*
X5736Y8297D01*
X5759Y8279D01*
X5786Y8268D01*
X5814Y8264D01*
X5843Y8268D01*
X5869Y8279D01*
X5892Y8297D01*
X5909Y8319D01*
X5920Y8346D01*
X5924Y8374D01*
X5920Y8403D01*
X5909Y8429D01*
X5892Y8452D01*
X5869Y8470D01*
X5843Y8481D01*
X5814Y8485D01*
D02*
G37*
G36*
X5560D02*
X5532Y8481D01*
X5505Y8470D01*
X5482Y8452D01*
X5465Y8429D01*
X5454Y8403D01*
X5450Y8374D01*
X5454Y8346D01*
X5465Y8319D01*
X5482Y8297D01*
X5505Y8279D01*
X5532Y8268D01*
X5560Y8264D01*
X5589Y8268D01*
X5615Y8279D01*
X5638Y8297D01*
X5655Y8319D01*
X5666Y8346D01*
X5670Y8374D01*
X5666Y8403D01*
X5655Y8429D01*
X5638Y8452D01*
X5615Y8470D01*
X5589Y8481D01*
X5560Y8485D01*
D02*
G37*
G36*
X3274D02*
X3246Y8481D01*
X3219Y8470D01*
X3196Y8452D01*
X3179Y8429D01*
X3168Y8403D01*
X3164Y8374D01*
X3168Y8346D01*
X3179Y8319D01*
X3196Y8297D01*
X3219Y8279D01*
X3246Y8268D01*
X3274Y8264D01*
X3303Y8268D01*
X3329Y8279D01*
X3352Y8297D01*
X3369Y8319D01*
X3380Y8346D01*
X3384Y8374D01*
X3380Y8403D01*
X3369Y8429D01*
X3352Y8452D01*
X3329Y8470D01*
X3303Y8481D01*
X3274Y8485D01*
D02*
G37*
G36*
X3020D02*
X2992Y8481D01*
X2965Y8470D01*
X2942Y8452D01*
X2925Y8429D01*
X2914Y8403D01*
X2910Y8374D01*
X2914Y8346D01*
X2925Y8319D01*
X2942Y8297D01*
X2965Y8279D01*
X2992Y8268D01*
X3020Y8264D01*
X3049Y8268D01*
X3075Y8279D01*
X3098Y8297D01*
X3115Y8319D01*
X3126Y8346D01*
X3130Y8374D01*
X3126Y8403D01*
X3115Y8429D01*
X3098Y8452D01*
X3075Y8470D01*
X3049Y8481D01*
X3020Y8485D01*
D02*
G37*
G36*
X2766D02*
X2738Y8481D01*
X2711Y8470D01*
X2688Y8452D01*
X2671Y8429D01*
X2660Y8403D01*
X2656Y8374D01*
X2660Y8346D01*
X2671Y8319D01*
X2688Y8297D01*
X2711Y8279D01*
X2738Y8268D01*
X2766Y8264D01*
X2795Y8268D01*
X2821Y8279D01*
X2844Y8297D01*
X2861Y8319D01*
X2872Y8346D01*
X2876Y8374D01*
X2872Y8403D01*
X2861Y8429D01*
X2844Y8452D01*
X2821Y8470D01*
X2795Y8481D01*
X2766Y8485D01*
D02*
G37*
G36*
X4036D02*
X4008Y8481D01*
X3981Y8470D01*
X3958Y8452D01*
X3941Y8429D01*
X3930Y8403D01*
X3926Y8374D01*
X3930Y8346D01*
X3941Y8319D01*
X3958Y8297D01*
X3981Y8279D01*
X4008Y8268D01*
X4036Y8264D01*
X4065Y8268D01*
X4091Y8279D01*
X4114Y8297D01*
X4131Y8319D01*
X4142Y8346D01*
X4146Y8374D01*
X4142Y8403D01*
X4131Y8429D01*
X4114Y8452D01*
X4091Y8470D01*
X4065Y8481D01*
X4036Y8485D01*
D02*
G37*
G36*
X3782D02*
X3754Y8481D01*
X3727Y8470D01*
X3704Y8452D01*
X3687Y8429D01*
X3676Y8403D01*
X3672Y8374D01*
X3676Y8346D01*
X3687Y8319D01*
X3704Y8297D01*
X3727Y8279D01*
X3754Y8268D01*
X3782Y8264D01*
X3811Y8268D01*
X3837Y8279D01*
X3860Y8297D01*
X3877Y8319D01*
X3888Y8346D01*
X3892Y8374D01*
X3888Y8403D01*
X3877Y8429D01*
X3860Y8452D01*
X3837Y8470D01*
X3811Y8481D01*
X3782Y8485D01*
D02*
G37*
G36*
X3528D02*
X3500Y8481D01*
X3473Y8470D01*
X3450Y8452D01*
X3433Y8429D01*
X3422Y8403D01*
X3418Y8374D01*
X3422Y8346D01*
X3433Y8319D01*
X3450Y8297D01*
X3473Y8279D01*
X3500Y8268D01*
X3528Y8264D01*
X3557Y8268D01*
X3583Y8279D01*
X3606Y8297D01*
X3623Y8319D01*
X3634Y8346D01*
X3638Y8374D01*
X3634Y8403D01*
X3623Y8429D01*
X3606Y8452D01*
X3583Y8470D01*
X3557Y8481D01*
X3528Y8485D01*
D02*
G37*
G36*
X7084Y8739D02*
X7056Y8735D01*
X7029Y8724D01*
X7006Y8706D01*
X6989Y8683D01*
X6978Y8657D01*
X6974Y8628D01*
X6978Y8600D01*
X6989Y8573D01*
X7006Y8551D01*
X7029Y8533D01*
X7056Y8522D01*
X7084Y8518D01*
X7113Y8522D01*
X7139Y8533D01*
X7162Y8551D01*
X7179Y8573D01*
X7190Y8600D01*
X7194Y8628D01*
X7190Y8657D01*
X7179Y8683D01*
X7162Y8706D01*
X7139Y8724D01*
X7113Y8735D01*
X7084Y8739D01*
D02*
G37*
G36*
X3274Y9247D02*
X3246Y9243D01*
X3219Y9232D01*
X3196Y9214D01*
X3179Y9191D01*
X3168Y9165D01*
X3164Y9136D01*
X3168Y9108D01*
X3179Y9081D01*
X3196Y9059D01*
X3219Y9041D01*
X3246Y9030D01*
X3274Y9026D01*
X3303Y9030D01*
X3329Y9041D01*
X3352Y9059D01*
X3369Y9081D01*
X3380Y9108D01*
X3384Y9136D01*
X3380Y9165D01*
X3369Y9191D01*
X3352Y9214D01*
X3329Y9232D01*
X3303Y9243D01*
X3274Y9247D01*
D02*
G37*
G36*
X3020D02*
X2992Y9243D01*
X2965Y9232D01*
X2942Y9214D01*
X2925Y9191D01*
X2914Y9165D01*
X2910Y9136D01*
X2914Y9108D01*
X2925Y9081D01*
X2942Y9059D01*
X2965Y9041D01*
X2992Y9030D01*
X3020Y9026D01*
X3049Y9030D01*
X3075Y9041D01*
X3098Y9059D01*
X3115Y9081D01*
X3126Y9108D01*
X3130Y9136D01*
X3126Y9165D01*
X3115Y9191D01*
X3098Y9214D01*
X3075Y9232D01*
X3049Y9243D01*
X3020Y9247D01*
D02*
G37*
G36*
X2766D02*
X2738Y9243D01*
X2711Y9232D01*
X2688Y9214D01*
X2671Y9191D01*
X2660Y9165D01*
X2656Y9136D01*
X2660Y9108D01*
X2671Y9081D01*
X2688Y9059D01*
X2711Y9041D01*
X2738Y9030D01*
X2766Y9026D01*
X2795Y9030D01*
X2821Y9041D01*
X2844Y9059D01*
X2861Y9081D01*
X2872Y9108D01*
X2876Y9136D01*
X2872Y9165D01*
X2861Y9191D01*
X2844Y9214D01*
X2821Y9232D01*
X2795Y9243D01*
X2766Y9247D01*
D02*
G37*
G36*
X4036D02*
X4008Y9243D01*
X3981Y9232D01*
X3958Y9214D01*
X3941Y9191D01*
X3930Y9165D01*
X3926Y9136D01*
X3930Y9108D01*
X3941Y9081D01*
X3958Y9059D01*
X3981Y9041D01*
X4008Y9030D01*
X4036Y9026D01*
X4065Y9030D01*
X4091Y9041D01*
X4114Y9059D01*
X4131Y9081D01*
X4142Y9108D01*
X4146Y9136D01*
X4142Y9165D01*
X4131Y9191D01*
X4114Y9214D01*
X4091Y9232D01*
X4065Y9243D01*
X4036Y9247D01*
D02*
G37*
G36*
X3782D02*
X3754Y9243D01*
X3727Y9232D01*
X3704Y9214D01*
X3687Y9191D01*
X3676Y9165D01*
X3672Y9136D01*
X3676Y9108D01*
X3687Y9081D01*
X3704Y9059D01*
X3727Y9041D01*
X3754Y9030D01*
X3782Y9026D01*
X3811Y9030D01*
X3837Y9041D01*
X3860Y9059D01*
X3877Y9081D01*
X3888Y9108D01*
X3892Y9136D01*
X3888Y9165D01*
X3877Y9191D01*
X3860Y9214D01*
X3837Y9232D01*
X3811Y9243D01*
X3782Y9247D01*
D02*
G37*
G36*
X3528D02*
X3500Y9243D01*
X3473Y9232D01*
X3450Y9214D01*
X3433Y9191D01*
X3422Y9165D01*
X3418Y9136D01*
X3422Y9108D01*
X3433Y9081D01*
X3450Y9059D01*
X3473Y9041D01*
X3500Y9030D01*
X3528Y9026D01*
X3557Y9030D01*
X3583Y9041D01*
X3606Y9059D01*
X3623Y9081D01*
X3634Y9108D01*
X3638Y9136D01*
X3634Y9165D01*
X3623Y9191D01*
X3606Y9214D01*
X3583Y9232D01*
X3557Y9243D01*
X3528Y9247D01*
D02*
G37*
G36*
X1750D02*
X1722Y9243D01*
X1695Y9232D01*
X1672Y9214D01*
X1655Y9191D01*
X1644Y9165D01*
X1640Y9136D01*
X1644Y9108D01*
X1655Y9081D01*
X1672Y9059D01*
X1695Y9041D01*
X1722Y9030D01*
X1750Y9026D01*
X1779Y9030D01*
X1805Y9041D01*
X1828Y9059D01*
X1845Y9081D01*
X1856Y9108D01*
X1860Y9136D01*
X1856Y9165D01*
X1845Y9191D01*
X1828Y9214D01*
X1805Y9232D01*
X1779Y9243D01*
X1750Y9247D01*
D02*
G37*
G36*
X1496D02*
X1468Y9243D01*
X1441Y9232D01*
X1418Y9214D01*
X1401Y9191D01*
X1390Y9165D01*
X1386Y9136D01*
X1390Y9108D01*
X1401Y9081D01*
X1418Y9059D01*
X1441Y9041D01*
X1468Y9030D01*
X1496Y9026D01*
X1525Y9030D01*
X1551Y9041D01*
X1574Y9059D01*
X1591Y9081D01*
X1602Y9108D01*
X1606Y9136D01*
X1602Y9165D01*
X1591Y9191D01*
X1574Y9214D01*
X1551Y9232D01*
X1525Y9243D01*
X1496Y9247D01*
D02*
G37*
G36*
X1242D02*
X1214Y9243D01*
X1187Y9232D01*
X1164Y9214D01*
X1147Y9191D01*
X1136Y9165D01*
X1132Y9136D01*
X1136Y9108D01*
X1147Y9081D01*
X1164Y9059D01*
X1187Y9041D01*
X1214Y9030D01*
X1242Y9026D01*
X1271Y9030D01*
X1297Y9041D01*
X1320Y9059D01*
X1337Y9081D01*
X1348Y9108D01*
X1352Y9136D01*
X1348Y9165D01*
X1337Y9191D01*
X1320Y9214D01*
X1297Y9232D01*
X1271Y9243D01*
X1242Y9247D01*
D02*
G37*
G36*
X2512D02*
X2484Y9243D01*
X2457Y9232D01*
X2434Y9214D01*
X2417Y9191D01*
X2406Y9165D01*
X2402Y9136D01*
X2406Y9108D01*
X2417Y9081D01*
X2434Y9059D01*
X2457Y9041D01*
X2484Y9030D01*
X2512Y9026D01*
X2541Y9030D01*
X2567Y9041D01*
X2590Y9059D01*
X2607Y9081D01*
X2618Y9108D01*
X2622Y9136D01*
X2618Y9165D01*
X2607Y9191D01*
X2590Y9214D01*
X2567Y9232D01*
X2541Y9243D01*
X2512Y9247D01*
D02*
G37*
G36*
X2258D02*
X2230Y9243D01*
X2203Y9232D01*
X2180Y9214D01*
X2163Y9191D01*
X2152Y9165D01*
X2148Y9136D01*
X2152Y9108D01*
X2163Y9081D01*
X2180Y9059D01*
X2203Y9041D01*
X2230Y9030D01*
X2258Y9026D01*
X2287Y9030D01*
X2313Y9041D01*
X2336Y9059D01*
X2353Y9081D01*
X2364Y9108D01*
X2368Y9136D01*
X2364Y9165D01*
X2353Y9191D01*
X2336Y9214D01*
X2313Y9232D01*
X2287Y9243D01*
X2258Y9247D01*
D02*
G37*
G36*
X2004D02*
X1976Y9243D01*
X1949Y9232D01*
X1926Y9214D01*
X1909Y9191D01*
X1898Y9165D01*
X1894Y9136D01*
X1898Y9108D01*
X1909Y9081D01*
X1926Y9059D01*
X1949Y9041D01*
X1976Y9030D01*
X2004Y9026D01*
X2033Y9030D01*
X2059Y9041D01*
X2082Y9059D01*
X2099Y9081D01*
X2110Y9108D01*
X2114Y9136D01*
X2110Y9165D01*
X2099Y9191D01*
X2082Y9214D01*
X2059Y9232D01*
X2033Y9243D01*
X2004Y9247D01*
D02*
G37*
G36*
X4290D02*
X4262Y9243D01*
X4235Y9232D01*
X4212Y9214D01*
X4195Y9191D01*
X4184Y9165D01*
X4180Y9136D01*
X4184Y9108D01*
X4195Y9081D01*
X4212Y9059D01*
X4235Y9041D01*
X4262Y9030D01*
X4290Y9026D01*
X4319Y9030D01*
X4345Y9041D01*
X4368Y9059D01*
X4385Y9081D01*
X4396Y9108D01*
X4400Y9136D01*
X4396Y9165D01*
X4385Y9191D01*
X4368Y9214D01*
X4345Y9232D01*
X4319Y9243D01*
X4290Y9247D01*
D02*
G37*
G36*
X6576D02*
X6548Y9243D01*
X6521Y9232D01*
X6498Y9214D01*
X6481Y9191D01*
X6470Y9165D01*
X6466Y9136D01*
X6470Y9108D01*
X6481Y9081D01*
X6498Y9059D01*
X6521Y9041D01*
X6548Y9030D01*
X6576Y9026D01*
X6605Y9030D01*
X6631Y9041D01*
X6654Y9059D01*
X6671Y9081D01*
X6682Y9108D01*
X6686Y9136D01*
X6682Y9165D01*
X6671Y9191D01*
X6654Y9214D01*
X6631Y9232D01*
X6605Y9243D01*
X6576Y9247D01*
D02*
G37*
G36*
X6322D02*
X6294Y9243D01*
X6267Y9232D01*
X6244Y9214D01*
X6227Y9191D01*
X6216Y9165D01*
X6212Y9136D01*
X6216Y9108D01*
X6227Y9081D01*
X6244Y9059D01*
X6267Y9041D01*
X6294Y9030D01*
X6322Y9026D01*
X6351Y9030D01*
X6377Y9041D01*
X6400Y9059D01*
X6417Y9081D01*
X6428Y9108D01*
X6432Y9136D01*
X6428Y9165D01*
X6417Y9191D01*
X6400Y9214D01*
X6377Y9232D01*
X6351Y9243D01*
X6322Y9247D01*
D02*
G37*
G36*
X6068D02*
X6040Y9243D01*
X6013Y9232D01*
X5990Y9214D01*
X5973Y9191D01*
X5962Y9165D01*
X5958Y9136D01*
X5962Y9108D01*
X5973Y9081D01*
X5990Y9059D01*
X6013Y9041D01*
X6040Y9030D01*
X6068Y9026D01*
X6097Y9030D01*
X6123Y9041D01*
X6146Y9059D01*
X6163Y9081D01*
X6174Y9108D01*
X6178Y9136D01*
X6174Y9165D01*
X6163Y9191D01*
X6146Y9214D01*
X6123Y9232D01*
X6097Y9243D01*
X6068Y9247D01*
D02*
G37*
G36*
X7592D02*
X7564Y9243D01*
X7537Y9232D01*
X7514Y9214D01*
X7497Y9191D01*
X7486Y9165D01*
X7482Y9136D01*
X7486Y9108D01*
X7497Y9081D01*
X7514Y9059D01*
X7537Y9041D01*
X7564Y9030D01*
X7592Y9026D01*
X7621Y9030D01*
X7647Y9041D01*
X7670Y9059D01*
X7687Y9081D01*
X7698Y9108D01*
X7702Y9136D01*
X7698Y9165D01*
X7687Y9191D01*
X7670Y9214D01*
X7647Y9232D01*
X7621Y9243D01*
X7592Y9247D01*
D02*
G37*
G36*
X7338D02*
X7310Y9243D01*
X7283Y9232D01*
X7260Y9214D01*
X7243Y9191D01*
X7232Y9165D01*
X7228Y9136D01*
X7232Y9108D01*
X7243Y9081D01*
X7260Y9059D01*
X7283Y9041D01*
X7310Y9030D01*
X7338Y9026D01*
X7367Y9030D01*
X7393Y9041D01*
X7416Y9059D01*
X7433Y9081D01*
X7444Y9108D01*
X7448Y9136D01*
X7444Y9165D01*
X7433Y9191D01*
X7416Y9214D01*
X7393Y9232D01*
X7367Y9243D01*
X7338Y9247D01*
D02*
G37*
G36*
X7084D02*
X7056Y9243D01*
X7029Y9232D01*
X7006Y9214D01*
X6989Y9191D01*
X6978Y9165D01*
X6974Y9136D01*
X6978Y9108D01*
X6989Y9081D01*
X7006Y9059D01*
X7029Y9041D01*
X7056Y9030D01*
X7084Y9026D01*
X7113Y9030D01*
X7139Y9041D01*
X7162Y9059D01*
X7179Y9081D01*
X7190Y9108D01*
X7194Y9136D01*
X7190Y9165D01*
X7179Y9191D01*
X7162Y9214D01*
X7139Y9232D01*
X7113Y9243D01*
X7084Y9247D01*
D02*
G37*
G36*
X5052D02*
X5024Y9243D01*
X4997Y9232D01*
X4974Y9214D01*
X4957Y9191D01*
X4946Y9165D01*
X4942Y9136D01*
X4946Y9108D01*
X4957Y9081D01*
X4974Y9059D01*
X4997Y9041D01*
X5024Y9030D01*
X5052Y9026D01*
X5081Y9030D01*
X5107Y9041D01*
X5130Y9059D01*
X5147Y9081D01*
X5158Y9108D01*
X5162Y9136D01*
X5158Y9165D01*
X5147Y9191D01*
X5130Y9214D01*
X5107Y9232D01*
X5081Y9243D01*
X5052Y9247D01*
D02*
G37*
G36*
X4798D02*
X4770Y9243D01*
X4743Y9232D01*
X4720Y9214D01*
X4703Y9191D01*
X4692Y9165D01*
X4688Y9136D01*
X4692Y9108D01*
X4703Y9081D01*
X4720Y9059D01*
X4743Y9041D01*
X4770Y9030D01*
X4798Y9026D01*
X4827Y9030D01*
X4853Y9041D01*
X4876Y9059D01*
X4893Y9081D01*
X4904Y9108D01*
X4908Y9136D01*
X4904Y9165D01*
X4893Y9191D01*
X4876Y9214D01*
X4853Y9232D01*
X4827Y9243D01*
X4798Y9247D01*
D02*
G37*
G36*
X4544D02*
X4516Y9243D01*
X4489Y9232D01*
X4466Y9214D01*
X4449Y9191D01*
X4438Y9165D01*
X4434Y9136D01*
X4438Y9108D01*
X4449Y9081D01*
X4466Y9059D01*
X4489Y9041D01*
X4516Y9030D01*
X4544Y9026D01*
X4573Y9030D01*
X4599Y9041D01*
X4622Y9059D01*
X4639Y9081D01*
X4650Y9108D01*
X4654Y9136D01*
X4650Y9165D01*
X4639Y9191D01*
X4622Y9214D01*
X4599Y9232D01*
X4573Y9243D01*
X4544Y9247D01*
D02*
G37*
G36*
X5814D02*
X5786Y9243D01*
X5759Y9232D01*
X5736Y9214D01*
X5719Y9191D01*
X5708Y9165D01*
X5704Y9136D01*
X5708Y9108D01*
X5719Y9081D01*
X5736Y9059D01*
X5759Y9041D01*
X5786Y9030D01*
X5814Y9026D01*
X5843Y9030D01*
X5869Y9041D01*
X5892Y9059D01*
X5909Y9081D01*
X5920Y9108D01*
X5924Y9136D01*
X5920Y9165D01*
X5909Y9191D01*
X5892Y9214D01*
X5869Y9232D01*
X5843Y9243D01*
X5814Y9247D01*
D02*
G37*
G36*
X5560D02*
X5532Y9243D01*
X5505Y9232D01*
X5482Y9214D01*
X5465Y9191D01*
X5454Y9165D01*
X5450Y9136D01*
X5454Y9108D01*
X5465Y9081D01*
X5482Y9059D01*
X5505Y9041D01*
X5532Y9030D01*
X5560Y9026D01*
X5589Y9030D01*
X5615Y9041D01*
X5638Y9059D01*
X5655Y9081D01*
X5666Y9108D01*
X5670Y9136D01*
X5666Y9165D01*
X5655Y9191D01*
X5638Y9214D01*
X5615Y9232D01*
X5589Y9243D01*
X5560Y9247D01*
D02*
G37*
G36*
X5306D02*
X5278Y9243D01*
X5251Y9232D01*
X5228Y9214D01*
X5211Y9191D01*
X5200Y9165D01*
X5196Y9136D01*
X5200Y9108D01*
X5211Y9081D01*
X5228Y9059D01*
X5251Y9041D01*
X5278Y9030D01*
X5306Y9026D01*
X5335Y9030D01*
X5361Y9041D01*
X5384Y9059D01*
X5401Y9081D01*
X5412Y9108D01*
X5416Y9136D01*
X5412Y9165D01*
X5401Y9191D01*
X5384Y9214D01*
X5361Y9232D01*
X5335Y9243D01*
X5306Y9247D01*
D02*
G37*
G36*
X7592Y8993D02*
X7564Y8989D01*
X7537Y8978D01*
X7514Y8960D01*
X7497Y8937D01*
X7486Y8911D01*
X7482Y8882D01*
X7486Y8854D01*
X7497Y8827D01*
X7514Y8805D01*
X7537Y8787D01*
X7564Y8776D01*
X7592Y8772D01*
X7621Y8776D01*
X7647Y8787D01*
X7670Y8805D01*
X7687Y8827D01*
X7698Y8854D01*
X7702Y8882D01*
X7698Y8911D01*
X7687Y8937D01*
X7670Y8960D01*
X7647Y8978D01*
X7621Y8989D01*
X7592Y8993D01*
D02*
G37*
G36*
X2766D02*
X2738Y8989D01*
X2711Y8978D01*
X2688Y8960D01*
X2671Y8937D01*
X2660Y8911D01*
X2656Y8882D01*
X2660Y8854D01*
X2671Y8827D01*
X2688Y8805D01*
X2711Y8787D01*
X2738Y8776D01*
X2766Y8772D01*
X2795Y8776D01*
X2821Y8787D01*
X2844Y8805D01*
X2861Y8827D01*
X2872Y8854D01*
X2876Y8882D01*
X2872Y8911D01*
X2861Y8937D01*
X2844Y8960D01*
X2821Y8978D01*
X2795Y8989D01*
X2766Y8993D01*
D02*
G37*
G36*
X2512D02*
X2484Y8989D01*
X2457Y8978D01*
X2434Y8960D01*
X2417Y8937D01*
X2406Y8911D01*
X2402Y8882D01*
X2406Y8854D01*
X2417Y8827D01*
X2434Y8805D01*
X2457Y8787D01*
X2484Y8776D01*
X2512Y8772D01*
X2541Y8776D01*
X2567Y8787D01*
X2590Y8805D01*
X2607Y8827D01*
X2618Y8854D01*
X2622Y8882D01*
X2618Y8911D01*
X2607Y8937D01*
X2590Y8960D01*
X2567Y8978D01*
X2541Y8989D01*
X2512Y8993D01*
D02*
G37*
G36*
X2258D02*
X2230Y8989D01*
X2203Y8978D01*
X2180Y8960D01*
X2163Y8937D01*
X2152Y8911D01*
X2148Y8882D01*
X2152Y8854D01*
X2163Y8827D01*
X2180Y8805D01*
X2203Y8787D01*
X2230Y8776D01*
X2258Y8772D01*
X2287Y8776D01*
X2313Y8787D01*
X2336Y8805D01*
X2353Y8827D01*
X2364Y8854D01*
X2368Y8882D01*
X2364Y8911D01*
X2353Y8937D01*
X2336Y8960D01*
X2313Y8978D01*
X2287Y8989D01*
X2258Y8993D01*
D02*
G37*
G36*
X3528D02*
X3500Y8989D01*
X3473Y8978D01*
X3450Y8960D01*
X3433Y8937D01*
X3422Y8911D01*
X3418Y8882D01*
X3422Y8854D01*
X3433Y8827D01*
X3450Y8805D01*
X3473Y8787D01*
X3500Y8776D01*
X3528Y8772D01*
X3557Y8776D01*
X3583Y8787D01*
X3606Y8805D01*
X3623Y8827D01*
X3634Y8854D01*
X3638Y8882D01*
X3634Y8911D01*
X3623Y8937D01*
X3606Y8960D01*
X3583Y8978D01*
X3557Y8989D01*
X3528Y8993D01*
D02*
G37*
G36*
X3274D02*
X3246Y8989D01*
X3219Y8978D01*
X3196Y8960D01*
X3179Y8937D01*
X3168Y8911D01*
X3164Y8882D01*
X3168Y8854D01*
X3179Y8827D01*
X3196Y8805D01*
X3219Y8787D01*
X3246Y8776D01*
X3274Y8772D01*
X3303Y8776D01*
X3329Y8787D01*
X3352Y8805D01*
X3369Y8827D01*
X3380Y8854D01*
X3384Y8882D01*
X3380Y8911D01*
X3369Y8937D01*
X3352Y8960D01*
X3329Y8978D01*
X3303Y8989D01*
X3274Y8993D01*
D02*
G37*
G36*
X3020D02*
X2992Y8989D01*
X2965Y8978D01*
X2942Y8960D01*
X2925Y8937D01*
X2914Y8911D01*
X2910Y8882D01*
X2914Y8854D01*
X2925Y8827D01*
X2942Y8805D01*
X2965Y8787D01*
X2992Y8776D01*
X3020Y8772D01*
X3049Y8776D01*
X3075Y8787D01*
X3098Y8805D01*
X3115Y8827D01*
X3126Y8854D01*
X3130Y8882D01*
X3126Y8911D01*
X3115Y8937D01*
X3098Y8960D01*
X3075Y8978D01*
X3049Y8989D01*
X3020Y8993D01*
D02*
G37*
G36*
X1242D02*
X1214Y8989D01*
X1187Y8978D01*
X1164Y8960D01*
X1147Y8937D01*
X1136Y8911D01*
X1132Y8882D01*
X1136Y8854D01*
X1147Y8827D01*
X1164Y8805D01*
X1187Y8787D01*
X1214Y8776D01*
X1242Y8772D01*
X1271Y8776D01*
X1297Y8787D01*
X1320Y8805D01*
X1337Y8827D01*
X1348Y8854D01*
X1352Y8882D01*
X1348Y8911D01*
X1337Y8937D01*
X1320Y8960D01*
X1297Y8978D01*
X1271Y8989D01*
X1242Y8993D01*
D02*
G37*
G36*
X7592Y8739D02*
X7564Y8735D01*
X7537Y8724D01*
X7514Y8706D01*
X7497Y8683D01*
X7486Y8657D01*
X7482Y8628D01*
X7486Y8600D01*
X7497Y8573D01*
X7514Y8551D01*
X7537Y8533D01*
X7564Y8522D01*
X7592Y8518D01*
X7621Y8522D01*
X7647Y8533D01*
X7670Y8551D01*
X7687Y8573D01*
X7698Y8600D01*
X7702Y8628D01*
X7698Y8657D01*
X7687Y8683D01*
X7670Y8706D01*
X7647Y8724D01*
X7621Y8735D01*
X7592Y8739D01*
D02*
G37*
G36*
X7338D02*
X7310Y8735D01*
X7283Y8724D01*
X7260Y8706D01*
X7243Y8683D01*
X7232Y8657D01*
X7228Y8628D01*
X7232Y8600D01*
X7243Y8573D01*
X7260Y8551D01*
X7283Y8533D01*
X7310Y8522D01*
X7338Y8518D01*
X7367Y8522D01*
X7393Y8533D01*
X7416Y8551D01*
X7433Y8573D01*
X7444Y8600D01*
X7448Y8628D01*
X7444Y8657D01*
X7433Y8683D01*
X7416Y8706D01*
X7393Y8724D01*
X7367Y8735D01*
X7338Y8739D01*
D02*
G37*
G36*
X2004Y8993D02*
X1976Y8989D01*
X1949Y8978D01*
X1926Y8960D01*
X1909Y8937D01*
X1898Y8911D01*
X1894Y8882D01*
X1898Y8854D01*
X1909Y8827D01*
X1926Y8805D01*
X1949Y8787D01*
X1976Y8776D01*
X2004Y8772D01*
X2033Y8776D01*
X2059Y8787D01*
X2082Y8805D01*
X2099Y8827D01*
X2110Y8854D01*
X2114Y8882D01*
X2110Y8911D01*
X2099Y8937D01*
X2082Y8960D01*
X2059Y8978D01*
X2033Y8989D01*
X2004Y8993D01*
D02*
G37*
G36*
X1750D02*
X1722Y8989D01*
X1695Y8978D01*
X1672Y8960D01*
X1655Y8937D01*
X1644Y8911D01*
X1640Y8882D01*
X1644Y8854D01*
X1655Y8827D01*
X1672Y8805D01*
X1695Y8787D01*
X1722Y8776D01*
X1750Y8772D01*
X1779Y8776D01*
X1805Y8787D01*
X1828Y8805D01*
X1845Y8827D01*
X1856Y8854D01*
X1860Y8882D01*
X1856Y8911D01*
X1845Y8937D01*
X1828Y8960D01*
X1805Y8978D01*
X1779Y8989D01*
X1750Y8993D01*
D02*
G37*
G36*
X1496D02*
X1468Y8989D01*
X1441Y8978D01*
X1418Y8960D01*
X1401Y8937D01*
X1390Y8911D01*
X1386Y8882D01*
X1390Y8854D01*
X1401Y8827D01*
X1418Y8805D01*
X1441Y8787D01*
X1468Y8776D01*
X1496Y8772D01*
X1525Y8776D01*
X1551Y8787D01*
X1574Y8805D01*
X1591Y8827D01*
X1602Y8854D01*
X1606Y8882D01*
X1602Y8911D01*
X1591Y8937D01*
X1574Y8960D01*
X1551Y8978D01*
X1525Y8989D01*
X1496Y8993D01*
D02*
G37*
G36*
X3782D02*
X3754Y8989D01*
X3727Y8978D01*
X3704Y8960D01*
X3687Y8937D01*
X3676Y8911D01*
X3672Y8882D01*
X3676Y8854D01*
X3687Y8827D01*
X3704Y8805D01*
X3727Y8787D01*
X3754Y8776D01*
X3782Y8772D01*
X3811Y8776D01*
X3837Y8787D01*
X3860Y8805D01*
X3877Y8827D01*
X3888Y8854D01*
X3892Y8882D01*
X3888Y8911D01*
X3877Y8937D01*
X3860Y8960D01*
X3837Y8978D01*
X3811Y8989D01*
X3782Y8993D01*
D02*
G37*
G36*
X6322D02*
X6294Y8989D01*
X6267Y8978D01*
X6244Y8960D01*
X6227Y8937D01*
X6216Y8911D01*
X6212Y8882D01*
X6216Y8854D01*
X6227Y8827D01*
X6244Y8805D01*
X6267Y8787D01*
X6294Y8776D01*
X6322Y8772D01*
X6351Y8776D01*
X6377Y8787D01*
X6400Y8805D01*
X6417Y8827D01*
X6428Y8854D01*
X6432Y8882D01*
X6428Y8911D01*
X6417Y8937D01*
X6400Y8960D01*
X6377Y8978D01*
X6351Y8989D01*
X6322Y8993D01*
D02*
G37*
G36*
X6068D02*
X6040Y8989D01*
X6013Y8978D01*
X5990Y8960D01*
X5973Y8937D01*
X5962Y8911D01*
X5958Y8882D01*
X5962Y8854D01*
X5973Y8827D01*
X5990Y8805D01*
X6013Y8787D01*
X6040Y8776D01*
X6068Y8772D01*
X6097Y8776D01*
X6123Y8787D01*
X6146Y8805D01*
X6163Y8827D01*
X6174Y8854D01*
X6178Y8882D01*
X6174Y8911D01*
X6163Y8937D01*
X6146Y8960D01*
X6123Y8978D01*
X6097Y8989D01*
X6068Y8993D01*
D02*
G37*
G36*
X5814D02*
X5786Y8989D01*
X5759Y8978D01*
X5736Y8960D01*
X5719Y8937D01*
X5708Y8911D01*
X5704Y8882D01*
X5708Y8854D01*
X5719Y8827D01*
X5736Y8805D01*
X5759Y8787D01*
X5786Y8776D01*
X5814Y8772D01*
X5843Y8776D01*
X5869Y8787D01*
X5892Y8805D01*
X5909Y8827D01*
X5920Y8854D01*
X5924Y8882D01*
X5920Y8911D01*
X5909Y8937D01*
X5892Y8960D01*
X5869Y8978D01*
X5843Y8989D01*
X5814Y8993D01*
D02*
G37*
G36*
X7338D02*
X7310Y8989D01*
X7283Y8978D01*
X7260Y8960D01*
X7243Y8937D01*
X7232Y8911D01*
X7228Y8882D01*
X7232Y8854D01*
X7243Y8827D01*
X7260Y8805D01*
X7283Y8787D01*
X7310Y8776D01*
X7338Y8772D01*
X7367Y8776D01*
X7393Y8787D01*
X7416Y8805D01*
X7433Y8827D01*
X7444Y8854D01*
X7448Y8882D01*
X7444Y8911D01*
X7433Y8937D01*
X7416Y8960D01*
X7393Y8978D01*
X7367Y8989D01*
X7338Y8993D01*
D02*
G37*
G36*
X7084D02*
X7056Y8989D01*
X7029Y8978D01*
X7006Y8960D01*
X6989Y8937D01*
X6978Y8911D01*
X6974Y8882D01*
X6978Y8854D01*
X6989Y8827D01*
X7006Y8805D01*
X7029Y8787D01*
X7056Y8776D01*
X7084Y8772D01*
X7113Y8776D01*
X7139Y8787D01*
X7162Y8805D01*
X7179Y8827D01*
X7190Y8854D01*
X7194Y8882D01*
X7190Y8911D01*
X7179Y8937D01*
X7162Y8960D01*
X7139Y8978D01*
X7113Y8989D01*
X7084Y8993D01*
D02*
G37*
G36*
X6576D02*
X6548Y8989D01*
X6521Y8978D01*
X6498Y8960D01*
X6481Y8937D01*
X6470Y8911D01*
X6466Y8882D01*
X6470Y8854D01*
X6481Y8827D01*
X6498Y8805D01*
X6521Y8787D01*
X6548Y8776D01*
X6576Y8772D01*
X6605Y8776D01*
X6631Y8787D01*
X6654Y8805D01*
X6671Y8827D01*
X6682Y8854D01*
X6686Y8882D01*
X6682Y8911D01*
X6671Y8937D01*
X6654Y8960D01*
X6631Y8978D01*
X6605Y8989D01*
X6576Y8993D01*
D02*
G37*
G36*
X4544D02*
X4516Y8989D01*
X4489Y8978D01*
X4466Y8960D01*
X4449Y8937D01*
X4438Y8911D01*
X4434Y8882D01*
X4438Y8854D01*
X4443Y8842D01*
X4389Y8788D01*
X4380Y8774D01*
X4377Y8758D01*
Y8714D01*
X4364Y8709D01*
X4345Y8724D01*
X4319Y8735D01*
X4290Y8739D01*
X4262Y8735D01*
X4235Y8724D01*
X4212Y8706D01*
X4195Y8683D01*
X4184Y8657D01*
X4180Y8628D01*
X4184Y8600D01*
X4195Y8573D01*
X4212Y8551D01*
X4235Y8533D01*
X4262Y8522D01*
X4290Y8518D01*
X4319Y8522D01*
X4345Y8533D01*
X4364Y8548D01*
X4377Y8542D01*
Y8460D01*
X4364Y8455D01*
X4345Y8470D01*
X4319Y8481D01*
X4290Y8485D01*
X4262Y8481D01*
X4235Y8470D01*
X4212Y8452D01*
X4195Y8429D01*
X4184Y8403D01*
X4180Y8374D01*
X4184Y8346D01*
X4195Y8319D01*
X4212Y8297D01*
X4235Y8279D01*
X4262Y8268D01*
X4290Y8264D01*
X4319Y8268D01*
X4345Y8279D01*
X4364Y8294D01*
X4377Y8288D01*
Y8252D01*
X4072Y7947D01*
X3820D01*
X3804Y7944D01*
X3790Y7935D01*
X3790Y7935D01*
X3751Y7896D01*
X3732Y7888D01*
X3714Y7874D01*
X3699Y7855D01*
X3690Y7834D01*
X3687Y7811D01*
X3690Y7787D01*
X3699Y7766D01*
X3714Y7747D01*
X3732Y7733D01*
X3754Y7724D01*
X3777Y7721D01*
X3800Y7724D01*
X3822Y7733D01*
X3840Y7747D01*
X3855Y7766D01*
X3864Y7787D01*
X3867Y7811D01*
X3864Y7834D01*
X3857Y7849D01*
X3865Y7862D01*
X4089D01*
X4106Y7865D01*
X4120Y7874D01*
X4450Y8204D01*
X4450Y8204D01*
X4459Y8218D01*
X4462Y8235D01*
X4462Y8235D01*
Y8283D01*
X4475Y8290D01*
X4489Y8279D01*
X4516Y8268D01*
X4544Y8264D01*
X4573Y8268D01*
X4599Y8279D01*
X4622Y8297D01*
X4639Y8319D01*
X4650Y8346D01*
X4654Y8374D01*
X4650Y8403D01*
X4639Y8429D01*
X4622Y8452D01*
X4599Y8470D01*
X4573Y8481D01*
X4544Y8485D01*
X4516Y8481D01*
X4489Y8470D01*
X4475Y8459D01*
X4462Y8465D01*
Y8537D01*
X4475Y8544D01*
X4489Y8533D01*
X4516Y8522D01*
X4544Y8518D01*
X4573Y8522D01*
X4599Y8533D01*
X4622Y8551D01*
X4639Y8573D01*
X4650Y8600D01*
X4654Y8628D01*
X4650Y8657D01*
X4639Y8683D01*
X4622Y8706D01*
X4599Y8724D01*
X4573Y8735D01*
X4544Y8739D01*
X4516Y8735D01*
X4489Y8724D01*
X4475Y8713D01*
X4462Y8719D01*
Y8740D01*
X4503Y8781D01*
X4516Y8776D01*
X4544Y8772D01*
X4573Y8776D01*
X4599Y8787D01*
X4622Y8805D01*
X4639Y8827D01*
X4650Y8854D01*
X4654Y8882D01*
X4650Y8911D01*
X4639Y8937D01*
X4622Y8960D01*
X4599Y8978D01*
X4573Y8989D01*
X4544Y8993D01*
D02*
G37*
G36*
X4290D02*
X4262Y8989D01*
X4235Y8978D01*
X4212Y8960D01*
X4195Y8937D01*
X4184Y8911D01*
X4180Y8882D01*
X4184Y8854D01*
X4195Y8827D01*
X4212Y8805D01*
X4235Y8787D01*
X4262Y8776D01*
X4290Y8772D01*
X4319Y8776D01*
X4345Y8787D01*
X4368Y8805D01*
X4385Y8827D01*
X4396Y8854D01*
X4400Y8882D01*
X4396Y8911D01*
X4385Y8937D01*
X4368Y8960D01*
X4345Y8978D01*
X4319Y8989D01*
X4290Y8993D01*
D02*
G37*
G36*
X4036D02*
X4008Y8989D01*
X3981Y8978D01*
X3958Y8960D01*
X3941Y8937D01*
X3930Y8911D01*
X3926Y8882D01*
X3930Y8854D01*
X3941Y8827D01*
X3958Y8805D01*
X3981Y8787D01*
X4008Y8776D01*
X4036Y8772D01*
X4065Y8776D01*
X4091Y8787D01*
X4114Y8805D01*
X4131Y8827D01*
X4142Y8854D01*
X4146Y8882D01*
X4142Y8911D01*
X4131Y8937D01*
X4114Y8960D01*
X4091Y8978D01*
X4065Y8989D01*
X4036Y8993D01*
D02*
G37*
G36*
X5560D02*
X5532Y8989D01*
X5505Y8978D01*
X5482Y8960D01*
X5465Y8937D01*
X5454Y8911D01*
X5450Y8882D01*
X5454Y8854D01*
X5465Y8827D01*
X5482Y8805D01*
X5505Y8787D01*
X5532Y8776D01*
X5560Y8772D01*
X5589Y8776D01*
X5615Y8787D01*
X5638Y8805D01*
X5655Y8827D01*
X5666Y8854D01*
X5670Y8882D01*
X5666Y8911D01*
X5655Y8937D01*
X5638Y8960D01*
X5615Y8978D01*
X5589Y8989D01*
X5560Y8993D01*
D02*
G37*
G36*
X5306D02*
X5278Y8989D01*
X5251Y8978D01*
X5228Y8960D01*
X5211Y8937D01*
X5200Y8911D01*
X5196Y8882D01*
X5200Y8854D01*
X5211Y8827D01*
X5228Y8805D01*
X5251Y8787D01*
X5278Y8776D01*
X5306Y8772D01*
X5335Y8776D01*
X5361Y8787D01*
X5384Y8805D01*
X5401Y8827D01*
X5412Y8854D01*
X5416Y8882D01*
X5412Y8911D01*
X5401Y8937D01*
X5384Y8960D01*
X5361Y8978D01*
X5335Y8989D01*
X5306Y8993D01*
D02*
G37*
G36*
X5052D02*
X5024Y8989D01*
X4997Y8978D01*
X4974Y8960D01*
X4957Y8937D01*
X4946Y8911D01*
X4942Y8882D01*
X4946Y8854D01*
X4957Y8827D01*
X4974Y8805D01*
X4997Y8787D01*
X5024Y8776D01*
X5052Y8772D01*
X5081Y8776D01*
X5107Y8787D01*
X5130Y8805D01*
X5147Y8827D01*
X5158Y8854D01*
X5162Y8882D01*
X5158Y8911D01*
X5147Y8937D01*
X5130Y8960D01*
X5107Y8978D01*
X5081Y8989D01*
X5052Y8993D01*
D02*
G37*
%LPD*%
D12*
X7950Y4069D02*
Y4323D01*
X6220Y2339D02*
X7950Y4069D01*
X2964Y2339D02*
X6220D01*
X1334Y709D02*
X2964Y2339D01*
X1334Y345D02*
Y709D01*
X7082Y7186D02*
X7546Y6721D01*
X8407D01*
Y6467D02*
Y6721D01*
X610Y4094D02*
Y4348D01*
X4244D01*
X7082Y7186D01*
Y7711D01*
X6830Y7963D02*
X7082Y7711D01*
X6830Y7963D02*
Y9136D01*
X1321Y6187D02*
X1615D01*
X1067Y6441D02*
X1321Y6187D01*
X1067Y6441D02*
Y6695D01*
Y7280D01*
X1294Y7507D02*
X1446D01*
X1067Y7280D02*
X1294Y7507D01*
D13*
X5944Y7478D02*
Y7572D01*
X5735Y7269D02*
X5944Y7478D01*
X3432Y7269D02*
X5735D01*
X2837Y7864D02*
X3432Y7269D01*
X3777Y7811D02*
Y7861D01*
X3820Y7904D01*
X4420Y8758D02*
X4544Y8882D01*
X4089Y7904D02*
X4420Y8235D01*
Y8758D01*
X3820Y7904D02*
X4089D01*
D16*
X5436Y7572D02*
D03*
X5690D02*
D03*
X5944D02*
D03*
X6350D02*
D03*
X8407Y6721D02*
D03*
Y6467D02*
D03*
Y4943D02*
D03*
Y4689D02*
D03*
X1067Y6441D02*
D03*
X1054Y4727D02*
D03*
Y4981D02*
D03*
X1067Y6695D02*
D03*
X6604Y7572D02*
D03*
X1446Y7507D02*
D03*
Y7157D02*
D03*
X3581Y5199D02*
D03*
X3327D02*
D03*
X3073D02*
D03*
X2667D02*
D03*
X610Y4348D02*
D03*
Y4094D02*
D03*
Y2570D02*
D03*
Y2316D02*
D03*
X7950Y4069D02*
D03*
X7963Y2355D02*
D03*
Y2609D02*
D03*
X7950Y4323D02*
D03*
X2413Y5199D02*
D03*
X1615Y6537D02*
D03*
Y6187D02*
D03*
X1334Y345D02*
D03*
X1684D02*
D03*
D17*
X6830Y9136D02*
D03*
X1750Y8374D02*
D03*
Y8628D02*
D03*
Y8882D02*
D03*
Y9136D02*
D03*
X3782Y8374D02*
D03*
Y8628D02*
D03*
X7592Y8882D02*
D03*
Y9136D02*
D03*
Y8374D02*
D03*
Y8628D02*
D03*
X7338Y8882D02*
D03*
Y9136D02*
D03*
Y8374D02*
D03*
Y8628D02*
D03*
X7084Y8882D02*
D03*
Y9136D02*
D03*
Y8374D02*
D03*
Y8628D02*
D03*
X6576Y8882D02*
D03*
Y9136D02*
D03*
Y8374D02*
D03*
Y8628D02*
D03*
X6322Y8882D02*
D03*
Y9136D02*
D03*
Y8374D02*
D03*
Y8628D02*
D03*
X6068Y8882D02*
D03*
Y9136D02*
D03*
Y8374D02*
D03*
Y8628D02*
D03*
X5814Y8882D02*
D03*
Y9136D02*
D03*
Y8374D02*
D03*
Y8628D02*
D03*
X5560Y8882D02*
D03*
Y9136D02*
D03*
Y8374D02*
D03*
Y8628D02*
D03*
X5306Y8882D02*
D03*
Y9136D02*
D03*
Y8374D02*
D03*
Y8628D02*
D03*
X5052Y8882D02*
D03*
Y9136D02*
D03*
Y8374D02*
D03*
Y8628D02*
D03*
X4798Y8882D02*
D03*
Y9136D02*
D03*
Y8374D02*
D03*
Y8628D02*
D03*
X4544Y8882D02*
D03*
Y9136D02*
D03*
Y8374D02*
D03*
Y8628D02*
D03*
X4290Y8882D02*
D03*
Y9136D02*
D03*
Y8374D02*
D03*
Y8628D02*
D03*
X4036Y8882D02*
D03*
Y9136D02*
D03*
Y8374D02*
D03*
Y8628D02*
D03*
X3782Y8882D02*
D03*
Y9136D02*
D03*
X3528Y8374D02*
D03*
Y8882D02*
D03*
Y9136D02*
D03*
X3274Y8374D02*
D03*
Y8628D02*
D03*
Y8882D02*
D03*
Y9136D02*
D03*
X3020Y8374D02*
D03*
Y8628D02*
D03*
Y8882D02*
D03*
Y9136D02*
D03*
X2766Y8374D02*
D03*
Y8628D02*
D03*
Y8882D02*
D03*
Y9136D02*
D03*
X2512Y8374D02*
D03*
Y8628D02*
D03*
Y8882D02*
D03*
Y9136D02*
D03*
X2258Y8374D02*
D03*
Y8628D02*
D03*
Y8882D02*
D03*
Y9136D02*
D03*
X2004Y8374D02*
D03*
Y8628D02*
D03*
Y8882D02*
D03*
Y9136D02*
D03*
X1496Y8374D02*
D03*
Y8628D02*
D03*
Y8882D02*
D03*
Y9136D02*
D03*
X1242Y8374D02*
D03*
Y8628D02*
D03*
Y8882D02*
D03*
Y9136D02*
D03*
X3528Y8628D02*
D03*
D18*
X3993Y7694D02*
D03*
X2697Y7686D02*
D03*
X2837Y7864D02*
D03*
X3777Y7811D02*
D03*
D19*
X353Y548D02*
D03*
X8355Y550D02*
D03*
X8103Y9118D02*
D03*
X733D02*
D03*
M02*
