G04 Layer_Color=32896*
%FSLAX42Y42*%
%MOMM*%
G71*
G01*
G75*
%ADD15C,0.25*%
D15*
X2045Y7948D02*
Y7795D01*
X1969D01*
X1943Y7821D01*
Y7922D01*
X1969Y7948D01*
X2045D01*
X1867Y7795D02*
X1816D01*
X1791Y7821D01*
Y7871D01*
X1816Y7897D01*
X1867D01*
X1892Y7871D01*
Y7821D01*
X1867Y7795D01*
X1638Y7897D02*
X1715D01*
X1740Y7871D01*
Y7821D01*
X1715Y7795D01*
X1638D01*
X1588D02*
Y7948D01*
Y7846D02*
X1511Y7897D01*
X1588Y7846D02*
X1511Y7795D01*
X1435D02*
X1385D01*
X1410D01*
Y7897D01*
X1435D01*
X1308Y7795D02*
Y7897D01*
X1232D01*
X1207Y7871D01*
Y7795D01*
X1105Y7744D02*
X1080D01*
X1054Y7770D01*
Y7897D01*
X1131D01*
X1156Y7871D01*
Y7821D01*
X1131Y7795D01*
X1054D01*
X851D02*
Y7948D01*
X801Y7897D01*
X750Y7948D01*
Y7795D01*
X674D02*
X623D01*
X597Y7821D01*
Y7871D01*
X623Y7897D01*
X674D01*
X699Y7871D01*
Y7821D01*
X674Y7795D01*
X521Y7922D02*
Y7897D01*
X547D01*
X496D01*
X521D01*
Y7821D01*
X496Y7795D01*
X394D02*
X343D01*
X318Y7821D01*
Y7871D01*
X343Y7897D01*
X394D01*
X420Y7871D01*
Y7821D01*
X394Y7795D01*
X267Y7897D02*
Y7795D01*
Y7846D01*
X242Y7871D01*
X216Y7897D01*
X191D01*
X8331Y5898D02*
X8230D01*
Y5872D01*
X8331Y5771D01*
Y5745D01*
X8179Y5898D02*
Y5796D01*
X8128Y5745D01*
X8077Y5796D01*
Y5898D01*
X8001Y5872D02*
Y5847D01*
X8026D01*
X7976D01*
X8001D01*
Y5771D01*
X7976Y5745D01*
X7874D02*
X7823D01*
X7798Y5771D01*
Y5822D01*
X7823Y5847D01*
X7874D01*
X7900Y5822D01*
Y5771D01*
X7874Y5745D01*
X7646D02*
X7747D01*
X7646Y5847D01*
Y5872D01*
X7671Y5898D01*
X7722D01*
X7747Y5872D01*
X7519Y5745D02*
Y5898D01*
X7595Y5822D01*
X7493D01*
X7442Y5898D02*
Y5796D01*
X7392Y5745D01*
X7341Y5796D01*
Y5898D01*
X7036Y5872D02*
X7062Y5898D01*
X7112D01*
X7138Y5872D01*
Y5847D01*
X7112Y5822D01*
X7062D01*
X7036Y5796D01*
Y5771D01*
X7062Y5745D01*
X7112D01*
X7138Y5771D01*
X6985Y5695D02*
Y5847D01*
X6909D01*
X6884Y5822D01*
Y5771D01*
X6909Y5745D01*
X6985D01*
X6833D02*
X6782D01*
X6808D01*
Y5847D01*
X6833D01*
X6706Y5745D02*
Y5898D01*
Y5796D02*
X6630Y5847D01*
X6706Y5796D02*
X6630Y5745D01*
X6478D02*
X6528D01*
X6554Y5771D01*
Y5822D01*
X6528Y5847D01*
X6478D01*
X6452Y5822D01*
Y5796D01*
X6554D01*
X6147Y5745D02*
X6173Y5771D01*
X6198Y5745D01*
X6224D01*
X6249Y5771D01*
Y5796D01*
X6224Y5822D01*
X6249Y5847D01*
Y5872D01*
X6224Y5898D01*
X6198D01*
X6173Y5872D01*
Y5847D01*
X6198Y5822D01*
X6173Y5796D01*
Y5771D01*
X6147Y5822D02*
X6173Y5796D01*
X6224Y5822D02*
X6198D01*
X5944Y5898D02*
Y5745D01*
Y5822D01*
X5843D01*
Y5898D01*
Y5745D01*
X5767D02*
X5716D01*
X5690Y5771D01*
Y5822D01*
X5716Y5847D01*
X5767D01*
X5792Y5822D01*
Y5771D01*
X5767Y5745D01*
X5640D02*
X5589D01*
X5614D01*
Y5898D01*
X5640D01*
X5411D02*
Y5745D01*
X5487D01*
X5513Y5771D01*
Y5822D01*
X5487Y5847D01*
X5411D01*
X2906Y6838D02*
Y6939D01*
X2855Y6990D01*
X2804Y6939D01*
Y6838D01*
Y6914D01*
X2906D01*
X2753Y6990D02*
Y6838D01*
X2677D01*
X2652Y6863D01*
Y6965D01*
X2677Y6990D01*
X2753D01*
X2499Y6965D02*
X2525Y6990D01*
X2576D01*
X2601Y6965D01*
Y6863D01*
X2576Y6838D01*
X2525D01*
X2499Y6863D01*
X2347Y6965D02*
X2373Y6990D01*
X2423D01*
X2449Y6965D01*
Y6939D01*
X2423Y6914D01*
X2373D01*
X2347Y6888D01*
Y6863D01*
X2373Y6838D01*
X2423D01*
X2449Y6863D01*
X2144Y6838D02*
Y6990D01*
X2093Y6939D01*
X2042Y6990D01*
Y6838D01*
X1966D02*
X1915D01*
X1890Y6863D01*
Y6914D01*
X1915Y6939D01*
X1966D01*
X1992Y6914D01*
Y6863D01*
X1966Y6838D01*
X1814Y6965D02*
Y6939D01*
X1839D01*
X1789D01*
X1814D01*
Y6863D01*
X1789Y6838D01*
X1687D02*
X1636D01*
X1611Y6863D01*
Y6914D01*
X1636Y6939D01*
X1687D01*
X1712Y6914D01*
Y6863D01*
X1687Y6838D01*
X1560Y6939D02*
Y6838D01*
Y6888D01*
X1535Y6914D01*
X1509Y6939D01*
X1484D01*
X1408Y6838D02*
X1331D01*
X1306Y6863D01*
X1331Y6888D01*
X1382D01*
X1408Y6914D01*
X1382Y6939D01*
X1306D01*
M02*
