G04 Layer_Color=65535*
%FSLAX42Y42*%
%MOMM*%
G71*
G01*
G75*
%ADD15C,0.25*%
%ADD20C,0.10*%
%ADD21C,0.15*%
%ADD22C,0.20*%
D15*
X714Y8161D02*
X815D01*
Y8136D01*
X714Y8034D01*
Y8009D01*
X866Y8161D02*
Y8059D01*
X917Y8009D01*
X968Y8059D01*
Y8161D01*
X1044Y8136D02*
Y8110D01*
X1018D01*
X1069D01*
X1044D01*
Y8034D01*
X1069Y8009D01*
X1171D02*
X1222D01*
X1247Y8034D01*
Y8085D01*
X1222Y8110D01*
X1171D01*
X1145Y8085D01*
Y8034D01*
X1171Y8009D01*
X1399D02*
X1298D01*
X1399Y8110D01*
Y8136D01*
X1374Y8161D01*
X1323D01*
X1298Y8136D01*
X1526Y8009D02*
Y8161D01*
X1450Y8085D01*
X1552D01*
X1602Y8161D02*
Y8059D01*
X1653Y8009D01*
X1704Y8059D01*
Y8161D01*
X1907Y8009D02*
Y8161D01*
X1958Y8110D01*
X2009Y8161D01*
Y8009D01*
X2085D02*
X2136D01*
X2161Y8034D01*
Y8085D01*
X2136Y8110D01*
X2085D01*
X2060Y8085D01*
Y8034D01*
X2085Y8009D01*
X2237Y8136D02*
Y8110D01*
X2212D01*
X2263D01*
X2237D01*
Y8034D01*
X2263Y8009D01*
X2364D02*
X2415D01*
X2440Y8034D01*
Y8085D01*
X2415Y8110D01*
X2364D01*
X2339Y8085D01*
Y8034D01*
X2364Y8009D01*
X2491Y8110D02*
Y8009D01*
Y8059D01*
X2517Y8085D01*
X2542Y8110D01*
X2567D01*
X2644Y8009D02*
X2720D01*
X2745Y8034D01*
X2720Y8059D01*
X2669D01*
X2644Y8085D01*
X2669Y8110D01*
X2745D01*
X185Y8278D02*
Y8430D01*
X262D01*
X287Y8405D01*
Y8354D01*
X262Y8329D01*
X185D01*
X439Y8405D02*
X414Y8430D01*
X363D01*
X338Y8405D01*
Y8303D01*
X363Y8278D01*
X414D01*
X439Y8303D01*
X490Y8278D02*
X541D01*
X516D01*
Y8430D01*
X490Y8405D01*
X617D02*
X642Y8430D01*
X693D01*
X719Y8405D01*
Y8303D01*
X693Y8278D01*
X642D01*
X617Y8303D01*
Y8405D01*
X846Y8278D02*
Y8430D01*
X769Y8354D01*
X871D01*
X3096Y7943D02*
X2995D01*
X3096Y8045D01*
Y8070D01*
X3071Y8096D01*
X3020D01*
X2995Y8070D01*
X3147Y8045D02*
X3172D01*
Y8020D01*
X3147D01*
Y8045D01*
Y7969D02*
X3172D01*
Y7943D01*
X3147D01*
Y7969D01*
X3274Y7943D02*
X3325D01*
X3299D01*
Y8096D01*
X3274Y8070D01*
X3553Y7943D02*
Y8096D01*
X3604Y8045D01*
X3655Y8096D01*
Y7943D01*
X3706Y8045D02*
Y7969D01*
X3731Y7943D01*
X3807D01*
Y8045D01*
X3858D02*
X3960Y7943D01*
X3909Y7994D01*
X3960Y8045D01*
X3858Y7943D01*
X3809Y7939D02*
X3783Y7964D01*
X3733D01*
X3707Y7939D01*
Y7837D01*
X3733Y7812D01*
X3783D01*
X3809Y7837D01*
X3859Y7812D02*
X3910D01*
X3885D01*
Y7964D01*
X3859Y7939D01*
X1234Y1915D02*
X1209Y1940D01*
X1158D01*
X1133Y1915D01*
Y1890D01*
X1158Y1864D01*
X1209D01*
X1234Y1839D01*
Y1814D01*
X1209Y1788D01*
X1158D01*
X1133Y1814D01*
X1285Y1737D02*
Y1890D01*
X1361D01*
X1387Y1864D01*
Y1814D01*
X1361Y1788D01*
X1285D01*
X1438D02*
X1488D01*
X1463D01*
Y1890D01*
X1438D01*
X1564Y1788D02*
Y1940D01*
Y1839D02*
X1641Y1890D01*
X1564Y1839D02*
X1641Y1788D01*
X1793D02*
X1742D01*
X1717Y1814D01*
Y1864D01*
X1742Y1890D01*
X1793D01*
X1818Y1864D01*
Y1839D01*
X1717D01*
X2123Y1788D02*
X2098Y1814D01*
X2072Y1788D01*
X2047D01*
X2022Y1814D01*
Y1839D01*
X2047Y1864D01*
X2022Y1890D01*
Y1915D01*
X2047Y1940D01*
X2072D01*
X2098Y1915D01*
Y1890D01*
X2072Y1864D01*
X2098Y1839D01*
Y1814D01*
X2123Y1864D02*
X2098Y1839D01*
X2047Y1864D02*
X2072D01*
X2326Y1940D02*
Y1788D01*
Y1864D01*
X2428D01*
Y1940D01*
Y1788D01*
X2504D02*
X2555D01*
X2580Y1814D01*
Y1864D01*
X2555Y1890D01*
X2504D01*
X2479Y1864D01*
Y1814D01*
X2504Y1788D01*
X2631D02*
X2682D01*
X2656D01*
Y1940D01*
X2631D01*
X2859D02*
Y1788D01*
X2783D01*
X2758Y1814D01*
Y1864D01*
X2783Y1890D01*
X2859D01*
D20*
X1092Y8255D02*
Y9255D01*
Y8255D02*
X7742D01*
Y9255D01*
X1092D02*
X7742D01*
D21*
X3129Y7532D02*
X3487D01*
X3127Y7852D02*
X3482D01*
D22*
X3693Y7666D02*
Y7716D01*
M02*
