G04 Layer_Physical_Order=1*
G04 Layer_Color=255*
%FSLAX42Y42*%
%MOMM*%
G71*
G01*
G75*
%ADD10R,1.45X0.30*%
%ADD11R,0.90X0.70*%
%ADD12C,1.50*%
%ADD13C,0.33*%
%ADD14C,0.30*%
%ADD15C,0.25*%
%ADD16C,2.00*%
%ADD17C,1.68*%
%ADD18C,1.27*%
%ADD19C,5.00*%
D10*
X3086Y7789D02*
D03*
Y7739D02*
D03*
Y7689D02*
D03*
Y7639D02*
D03*
Y7589D02*
D03*
X3526Y7789D02*
D03*
Y7739D02*
D03*
Y7689D02*
D03*
Y7639D02*
D03*
Y7589D02*
D03*
D11*
X3768Y7691D02*
D03*
X3898D02*
D03*
D12*
X1321Y6187D02*
X1615D01*
X1067Y6441D02*
X1321Y6187D01*
X1067Y6441D02*
Y6695D01*
X1296Y7507D02*
X1446D01*
X1067Y7277D02*
X1296Y7507D01*
X1067Y6695D02*
Y7277D01*
X7950Y4069D02*
Y4323D01*
X610Y4094D02*
Y4348D01*
X4244D02*
X7074Y7178D01*
X610Y4348D02*
X4244D01*
X7074Y7178D02*
X7531Y6721D01*
X7074Y7178D02*
Y7717D01*
X6830Y7960D02*
X7074Y7717D01*
X6830Y7960D02*
Y9136D01*
X6220Y2339D02*
X7950Y4069D01*
X2967Y2339D02*
X6220D01*
X1334Y706D02*
X2967Y2339D01*
X1334Y345D02*
Y706D01*
X8407Y6467D02*
Y6721D01*
X7531D02*
X8407D01*
D13*
X3768Y7691D02*
Y7850D01*
X2697Y7686D02*
X2700Y7689D01*
X2837Y7826D02*
Y7864D01*
Y7826D02*
X2924Y7739D01*
X2903Y7574D02*
X2968Y7639D01*
X2903Y5458D02*
Y7574D01*
Y5458D02*
X3073Y5288D01*
Y5199D02*
Y5288D01*
X5690Y7572D02*
Y7656D01*
X5309Y8037D02*
X5690Y7656D01*
X3645Y8037D02*
X5309D01*
X5814Y8311D02*
Y8374D01*
X5603Y8100D02*
X5814Y8311D01*
X3432Y8100D02*
X5603D01*
X5560Y8329D02*
Y8374D01*
X5390Y8158D02*
X5560Y8329D01*
X3383Y8158D02*
X5390D01*
X5057Y7950D02*
X5436Y7572D01*
X3716Y7950D02*
X5057D01*
X3655Y7889D02*
X3716Y7950D01*
X3655Y7772D02*
Y7889D01*
X3777Y7811D02*
Y7841D01*
X3768Y7850D02*
X3777Y7841D01*
X3526Y7918D02*
X3645Y8037D01*
X3233Y7902D02*
X3432Y8100D01*
X3233Y7630D02*
Y7902D01*
X3192Y7589D02*
X3233Y7630D01*
X3086Y7861D02*
X3383Y8158D01*
X3581Y5199D02*
X3724Y5342D01*
Y7557D01*
X3327Y5199D02*
Y7308D01*
X3526Y7506D01*
X3765Y7689D02*
X3768Y7691D01*
D14*
X2700Y7689D02*
X3086D01*
X2924Y7739D02*
X3086D01*
X2968Y7639D02*
X3086D01*
X3621Y7739D02*
X3655Y7772D01*
X3526Y7739D02*
X3621D01*
X3526Y7789D02*
Y7918D01*
X3086Y7589D02*
X3192D01*
X3086Y7789D02*
Y7861D01*
X3642Y7639D02*
X3724Y7557D01*
X3526Y7639D02*
X3642D01*
X3526Y7506D02*
Y7589D01*
Y7689D02*
X3765D01*
D15*
X7904Y9197D02*
X7802D01*
Y9121D01*
X7853Y9146D01*
X7878D01*
X7904Y9121D01*
Y9070D01*
X7878Y9044D01*
X7827D01*
X7802Y9070D01*
X8056Y9044D02*
X7954D01*
X8056Y9146D01*
Y9171D01*
X8031Y9197D01*
X7980D01*
X7954Y9171D01*
X7904Y8947D02*
X7802D01*
Y8871D01*
X7853Y8896D01*
X7878D01*
X7904Y8871D01*
Y8820D01*
X7878Y8794D01*
X7827D01*
X7802Y8820D01*
X7954Y8794D02*
X8005D01*
X7980D01*
Y8947D01*
X7954Y8921D01*
X7914Y8697D02*
X7812D01*
Y8621D01*
X7863Y8646D01*
X7888D01*
X7914Y8621D01*
Y8570D01*
X7888Y8544D01*
X7837D01*
X7812Y8570D01*
X8066Y8544D02*
X7964D01*
X8066Y8646D01*
Y8671D01*
X8041Y8697D01*
X7990D01*
X7964Y8671D01*
X7914Y8447D02*
X7812D01*
Y8371D01*
X7863Y8396D01*
X7888D01*
X7914Y8371D01*
Y8320D01*
X7888Y8294D01*
X7837D01*
X7812Y8320D01*
X7964Y8294D02*
X8015D01*
X7990D01*
Y8447D01*
X7964Y8421D01*
X1090Y9136D02*
X988D01*
X1090Y9238D01*
Y9263D01*
X1064Y9289D01*
X1013D01*
X988Y9263D01*
Y8882D02*
X1039D01*
X1013D01*
Y9035D01*
X988Y9009D01*
X1090Y8628D02*
X988D01*
X1090Y8730D01*
Y8755D01*
X1064Y8781D01*
X1013D01*
X988Y8755D01*
Y8374D02*
X1039D01*
X1013D01*
Y8527D01*
X988Y8501D01*
X542Y9027D02*
Y8874D01*
Y8951D01*
X644D01*
Y9027D01*
Y8874D01*
X796D02*
X694D01*
X796Y8976D01*
Y9001D01*
X771Y9027D01*
X720D01*
X694Y9001D01*
X542Y8627D02*
Y8474D01*
Y8551D01*
X644D01*
Y8627D01*
Y8474D01*
X694D02*
X745D01*
X720D01*
Y8627D01*
X694Y8601D01*
X1242Y9543D02*
Y9416D01*
X1267Y9390D01*
X1318D01*
X1344Y9416D01*
Y9543D01*
X1394Y9390D02*
Y9492D01*
X1420D01*
X1445Y9467D01*
Y9390D01*
Y9467D01*
X1471Y9492D01*
X1496Y9467D01*
Y9390D01*
X1547Y9543D02*
Y9390D01*
X1623D01*
X1648Y9416D01*
Y9441D01*
Y9467D01*
X1623Y9492D01*
X1547D01*
D16*
X5436Y7572D02*
D03*
X5690D02*
D03*
X5944D02*
D03*
X6350D02*
D03*
X8407Y6721D02*
D03*
Y6467D02*
D03*
Y4943D02*
D03*
Y4689D02*
D03*
X1067Y6441D02*
D03*
X1054Y4727D02*
D03*
Y4981D02*
D03*
X1067Y6695D02*
D03*
X6604Y7572D02*
D03*
X1446Y7507D02*
D03*
Y7157D02*
D03*
X3581Y5199D02*
D03*
X3327D02*
D03*
X3073D02*
D03*
X2667D02*
D03*
X610Y4348D02*
D03*
Y4094D02*
D03*
Y2570D02*
D03*
Y2316D02*
D03*
X7950Y4069D02*
D03*
X7963Y2355D02*
D03*
Y2609D02*
D03*
X7950Y4323D02*
D03*
X2413Y5199D02*
D03*
X1615Y6537D02*
D03*
Y6187D02*
D03*
X1334Y345D02*
D03*
X1684D02*
D03*
D17*
X6830Y9136D02*
D03*
X1750Y8374D02*
D03*
Y8628D02*
D03*
Y8882D02*
D03*
Y9136D02*
D03*
X3782Y8374D02*
D03*
Y8628D02*
D03*
X7592Y8882D02*
D03*
Y9136D02*
D03*
Y8374D02*
D03*
Y8628D02*
D03*
X7338Y8882D02*
D03*
Y9136D02*
D03*
Y8374D02*
D03*
Y8628D02*
D03*
X7084Y8882D02*
D03*
Y9136D02*
D03*
Y8374D02*
D03*
Y8628D02*
D03*
X6576Y8882D02*
D03*
Y9136D02*
D03*
Y8374D02*
D03*
Y8628D02*
D03*
X6322Y8882D02*
D03*
Y9136D02*
D03*
Y8374D02*
D03*
Y8628D02*
D03*
X6068Y8882D02*
D03*
Y9136D02*
D03*
Y8374D02*
D03*
Y8628D02*
D03*
X5814Y8882D02*
D03*
Y9136D02*
D03*
Y8374D02*
D03*
Y8628D02*
D03*
X5560Y8882D02*
D03*
Y9136D02*
D03*
Y8374D02*
D03*
Y8628D02*
D03*
X5306Y8882D02*
D03*
Y9136D02*
D03*
Y8374D02*
D03*
Y8628D02*
D03*
X5052Y8882D02*
D03*
Y9136D02*
D03*
Y8374D02*
D03*
Y8628D02*
D03*
X4798Y8882D02*
D03*
Y9136D02*
D03*
Y8374D02*
D03*
Y8628D02*
D03*
X4544Y8882D02*
D03*
Y9136D02*
D03*
Y8374D02*
D03*
Y8628D02*
D03*
X4290Y8882D02*
D03*
Y9136D02*
D03*
Y8374D02*
D03*
Y8628D02*
D03*
X4036Y8882D02*
D03*
Y9136D02*
D03*
Y8374D02*
D03*
Y8628D02*
D03*
X3782Y8882D02*
D03*
Y9136D02*
D03*
X3528Y8374D02*
D03*
Y8882D02*
D03*
Y9136D02*
D03*
X3274Y8374D02*
D03*
Y8628D02*
D03*
Y8882D02*
D03*
Y9136D02*
D03*
X3020Y8374D02*
D03*
Y8628D02*
D03*
Y8882D02*
D03*
Y9136D02*
D03*
X2766Y8374D02*
D03*
Y8628D02*
D03*
Y8882D02*
D03*
Y9136D02*
D03*
X2512Y8374D02*
D03*
Y8628D02*
D03*
Y8882D02*
D03*
Y9136D02*
D03*
X2258Y8374D02*
D03*
Y8628D02*
D03*
Y8882D02*
D03*
Y9136D02*
D03*
X2004Y8374D02*
D03*
Y8628D02*
D03*
Y8882D02*
D03*
Y9136D02*
D03*
X1496Y8374D02*
D03*
Y8628D02*
D03*
Y8882D02*
D03*
Y9136D02*
D03*
X1242Y8374D02*
D03*
Y8628D02*
D03*
Y8882D02*
D03*
Y9136D02*
D03*
X3528Y8628D02*
D03*
D18*
X3993Y7694D02*
D03*
X2697Y7686D02*
D03*
X2837Y7864D02*
D03*
X3777Y7811D02*
D03*
D19*
X353Y548D02*
D03*
X8355Y550D02*
D03*
X8103Y9118D02*
D03*
X733D02*
D03*
M02*
