M48
;Layer_Color=9474304
;FILE_FORMAT=4:2
METRIC,LZ
;TYPE=PLATED
T1F00S00C0.71
T2F00S00C0.91
T3F00S00C1.10
T4F00S00C3.05
%
T01
X002697Y007686
X002837Y007864
X003777Y007811
X003993Y007694
T02
X001242Y008374
X001496
X00175
Y008628
Y008882
Y009136
X001496
Y008882
Y008628
X001242
Y008882
Y009136
X002004
X002258
X002512
X002766
X00302
X003274
X003528
X003782
X004036
X00429
X004544
X004798
X005052
X005306
X00556
X005814
Y008882
Y008628
Y008374
X00556
Y008628
Y008882
X005306
Y008628
Y008374
X005052
Y008628
Y008882
X004798
Y008628
Y008374
X004544
Y008628
Y008882
X00429
Y008628
Y008374
X004036
X003782
Y008628
X004036
Y008882
X003782
X003528
X003274
Y008628
Y008374
X003528
Y008628
X00302
Y008374
X002766
Y008628
Y008882
X00302
X002512
Y008628
Y008374
X002258
Y008628
Y008882
X002004
Y008628
Y008374
X006068
X006322
X006576
Y008628
Y008882
Y009136
X00683
X007084
X007338
X007592
Y008882
Y008628
Y008374
X007338
Y008628
Y008882
X007084
Y008628
Y008374
X006322Y008628
Y008882
Y009136
X006068
Y008882
Y008628
T03
X001334Y000345
X001684
X007963Y002355
Y002609
X00795Y004069
Y004323
X008407Y004689
Y004943
X003581Y005199
X003327
X003073
X002667
X002413
X001054Y004981
Y004727
X00061Y004348
Y004094
Y00257
Y002316
X001067Y006441
Y006695
X001615Y006537
Y006187
X001446Y007157
Y007507
X005436Y007572
X00569
X005944
X00635
X006604
X008407Y006721
Y006467
T04
X000353Y000548
X008355Y00055
X000733Y009118
X008103
M30
